/* XPM */
static char *result[] = {
/* columns rows colors chars-per-pixel */
"60 60 14 1 ",
"  c black",
". c #006800",
"X c #F80000",
"o c #904800",
"O c #C87800",
"+ c #00C860",
"@ c #E08800",
"# c #F8F800",
"$ c #D8C830",
"% c #F0F870",
"& c #808080",
"* c gray72",
"= c #F8F8F8",
"- c None",
/* pixels */
"------------------------------------------------------------",
"------------------------------------------------------------",
"------------------------------------------------------------",
"----------------------------------         -----------------",
"----------------------------------         -----------------",
"-----    ------------     --------  &&=&&  -----------------",
"-----    ------------     --------  &&=&&  -----------------",
"---  %%%% -------    %%%$$ ----            -----------------",
"---  %%%% -------    %%%$$ ----            -----------------",
"---  $$          %%%%%$$%%$    OOOOOooo  -------------------",
"-----  &&*=====**  $$$  %%$                     ------------",
"-----  &&*=====**  $$$  %%$                     ------------",
"-----&&=======   **   $$$$ OOOOOOOOOoooooooooo  ------------",
"-----&&=======   **   $$$$ OOOOOOOOOoooooooooo  ------------",
"---  =========   **       @####@@@%%  %%%%%$$ --------------",
"---    ** =====****   XXXXXXXXXXX   == %%%%  -----     -----",
"---    ** =====****   XXXXXXXXXXX   == %%%%  -----     -----",
"---  ==  ===== ****  @###########@@@===  $$  ----- &&**  ---",
"---  ==  ===== ****  @###########@@@===  $$  ----- &&**  ---",
"---    ==     ***  $$=    &    &&===   %%  -----  O       --",
"---    ==     ***  $$=    &    &&===   %%  -----  O       --",
"-----  ********    $$=  &&=  &&==   %%%$$  ---       OOOO --",
"-------        &&&&   ==  =====  %%%%%$$$     ooooOOO    ---",
"-------        &&&&   ==  =====  %%%%%$$$     ooooOOO    ---",
"------------  ***&&  &  && &&  ==     $$$  oooXXXX%XX  -----",
"------------  ***&&  &  && &&  ==     $$$  oooXXXX%XX  -----",
"------------  ***&&   ==  =      ***** $$  XX%XXXX%XX  -----",
"------------  ===&&          &&$$ **  $$$  XX%XXXX%XX  -----",
"------------  ===&&          &&$$ **  $$$  XX%XXXX%XX  -----",
"---------   &&===&&  ==========&& &&$$$$$  XX%XXXX%XX  -----",
"---------   &&===&&  ==========&& &&$$$$$  XX%XXXX%XX  -----",
"-----    ===&&===&&  =  == ==&&**=&&  $  XX++X%%XXX%%XX  ---",
"-----    ===&&===&&  =  == ==&&**=&&  $  XX++X%%XXX%%XX  ---",
"-----  ==   =======&&        &&== ==  $  ++@@+     %%XX  ---",
"-----            ==** =========   ==       +++  ...       --",
"-----            ==** =========   ==       +++  ...       --",
"-----  == &&&&     ==&  *****=====     OO  ===&&  ....... --",
"-----  == &&&&     ==&  *****=====     OO  ===&&  ....... --",
"---  ==== &&&& &&  ===     &&==**===== OO  ==&&&** ....  ---",
"---  ==OO      &&    ===  O&&==  &==   OO  == ==&&*  ..  ---",
"---  ==OO      &&    ===  O&&==  &==   OO  == ==&&*  ..  ---",
"---  OOOO   &&&      &==== &&==   **== OO=====**  &**  -----",
"---  OOOO   &&&      &==== &&==   **== OO=====**  &**  -----",
"---  OO  ==========   &&=====  ooo  == OO==  ***  *  **  ---",
"---  OO  ==========   &&=====  ooo  == OO==  ***  *  **  ---",
"-----  ==          ===       ooOOooo==O    ooo*******    ---",
"-----  OO&oo===  &&&&&&&&&&&&&&&&&==**&&&ooooo**oo &&**  ---",
"-----  OO&oo===  &&&&&&&&&&&&&&&&&==**&&&ooooo**oo &&**  ---",
"-------  &&&OO=&&  &&&&&&&&&&&&&&&==&&&&&&&&&&&&ooo  &&  ---",
"-------  &&&OO=&&  &&&&&&&&&&&&&&&==&&&&&&&&&&&&ooo  &&  ---",
"-------  &OOoo===  OOOOOOOOOOOOoooooooooo&&&&*&&&&ooo  -----",
"--------- OOooO==OOoooooooooooo   oooooooooooooo&&&&&  -----",
"--------- OOooO==OOoooooooooooo   oooooooooooooo&&&&&  -----",
"--------- ooooo====  OOOOOOooooooooo       oooooooo  -------",
"--------- ooooo====  OOOOOOooooooooo       oooooooo  -------",
"----------    o  ==== ooooooooooooooooooooooo      ---------",
"----------    o  ==== ooooooooooooooooooooooo      ---------",
"--------------                                  ------------",
"------------------------------------------------------------",
"------------------------------------------------------------"
};
