/* XPM */
static char *result[] = {
/* columns rows colors chars-per-pixel */
"60 60 9 1 ",
"  c black",
". c #006800",
"X c #704000",
"o c #F8A800",
"O c #B820B0",
"+ c #C858D8",
"@ c #F8E088",
"# c #E090F8",
"$ c None",
/* pixels */
"$$$$$$$$$$$$$$$$$$$$$$$$$$$$$$$$$$$$$$$$$$$$$$$$$$$$$$$$$$$$",
"$$$$$$$$$$$$$$$$$$$$$$$$$$$$$$$$$$$$$$$$$$$$$$$$$$$$$$$$$$$$",
"$$$$$$$$$$$$$$$$$$$$$$$$$$$$$$$$$$$$$$$$$$$$$$$$$$$$$$$$$$$$",
"$$$$$$$$$$$$$$$$$$$$$$$$$$$$$$$$$$$$$$$$$$$$$$$$$$$$$$$$$$$$",
"$$$$$$$$$$$$$$$$$$$$$$$$$$$$$$$$$$$$$$$$$$$$$$$$$$$$$$$$$$$$",
"$$$$$$$$$$$$$$$$$$$$$$$$$$$$$$$$$$$$$$$$$$$$$$$$$$$$$$$$$$$$",
"$$$$$$$$$$$$$$$$$$$$$$$$$$$$$$$$$$$$$$$$$$$$$$$$$$$$$$$$$$$$",
"$$$$$$$$$$$$$$$$$$$$$$$$$$$$$$$$$$$$$$$$$$$$$$$$$$$$$$$$$$$$",
"$$$$$$$$$$$$$$$$$$$$$$$$$$$$$$$$$$$$$$$$$$$$$$$$$$$$$$$$$$$$",
"$$$$$$$$$$$$$$$$$$$$$$$$$$$$$$$$$$$$$$$$$$$$$$$$$$$$$$$$$$$$",
"$$$$$$$$$$$$$$$$$$$$$$$$$$$$$$$$$$$$$$$$$$$$$$$$$$$$$$$$$$$$",
"$$$$$$$$$$$$$$$$$$$$$    $$$$$$$$$$       $$$$$$$$$$$$$$$$$$",
"$$$$$$$$$$$$$$$$$$$$$    $$$$$$$$$$       $$$$$$$$$$$$$$$$$$",
"$$$$$$$$$$$$$$$$$$$$ X@@ $$$$$$$ XX@@@@@@@ $$$$$$$$$$$$$$$$$",
"$$$$$$$$$$$$$$$$$$$$ @  $$$    X@@@o    oo@  $$$$$$$$$$$$$$$",
"$$$$$$$$$$$$$$$$$$$$ @oo XX@@@@@o   XXo   o  $$$$$$$$$$$$$$$",
"$$$$$$$$$$$$$$$$$$$$ @oo XX@@@@@o   XXo   o  $$$$$$$$$$$$$$$",
"$$$$$$$$$$$$$$$$$$$$$X@@@@@o   o    oo .  o  $$$$$$$$$$$$$$$",
"$$$$$$$$$$$$$$$$$$$$$$      .  o .. ooX XXo  $$$$$$$$$$$$$$$",
"$$$$$$$$$$$$$$$$$$$$$$      .  o .. ooX XXo  $$$$$$$$$$$$$$$",
"$$$$$$$$$$$$$$$$$$$$$$$$$$$  XXo   .  oooo $$$$$$$$$$$$$$$$$",
"$$$$$$$$$$$$$$$$$$$$$$$$   + ooo OO       $$$$$$$$$$$$$$$$$$",
"$$$$$$$$$$$$$$$$$$$$$   #OO# ooX#OO+OO  $$$$$$$$$$$$$$$$$$$$",
"$$$$$$$$$$$$$$$$$$$$$   #OO# ooX#OO+OO  $$$$$$$$$$$$$$$$$$$$",
"$$$$$$$$$$$$$$$$$$$$ O+++###+   +OO#OO++  $$$$$$$$$$$$$$$$$$",
"$$$$$$$$$$$$$$$$$$  O####++##++OO##+OO+OOO $$$$$$$$$$$$$$$$$",
"$$$$$$$$$$$$$$$$$$  O####++##++OO##+OO+OOO $$$$$$$$$$$$$$$$$",
"$$$$$$$$$$$$$$$$$$  ##+++##+#####++O++O+++ $$$$$$$$$$$$$$$$$",
"$$$$$$$$$$$$$$$$$ OO#+##+##+#+++OOO+##++OOO  $$$$$$$$$$$$$$$",
"$$$$$$$$$$$$$$$$$ ++#+###++##++++++###+++++  $$$$$$$$$$$$$$$",
"$$$$$$$$$$$$$$$$$ ++#+###++##++++++###+++++  $$$$$$$$$$$$$$$",
"$$$$$$$$$$$$$$$  +++##+++###+######+###+OOOOO $$$$$$$$$$$$$$",
"$$$$$$$$$$$$$$$  +##+######+###++###+++++++OO $$$$$$$$$$$$$$",
"$$$$$$$$$$$$$$$  O###++++++##++##++####+OOOOO $$$$$$$$$$$$$$",
"$$$$$$$$$$$$$$$  O###++++++##++##++####+OOOOO $$$$$$$$$$$$$$",
"$$$$$$$$$$$$$$$  #OO#########++#+++#+++O+++OO $$$$$$$$$$$$$$",
"$$$$$$$$$$$$$$$  +OO+#+++++#+++####+##O+++OOO $$$$$$$$$$$$$$",
"$$$$$$$$$$$$$$$  +OO+#+++++#+++####+##O+++OOO $$$$$$$$$$$$$$",
"$$$$$$$$$$$$$$$  +OO+O#####++##++++#++O+OOOOO $$$$$$$$$$$$$$",
"$$$$$$$$$$$$$$$  O++O###O###+++++##+++O+++OOO $$$$$$$$$$$$$$",
"$$$$$$$$$$$$$$$$$ ++O+OO#++#+##++++OOO+OOOO  $$$$$$$$$$$$$$$",
"$$$$$$$$$$$$$$$$$ ++O+OO#++#+##++++OOO+OOOO  $$$$$$$$$$$$$$$",
"$$$$$$$$$$$$$$$$$ ++O+OO+++O+++O++++++O+OOO  $$$$$$$$$$$$$$$",
"$$$$$$$$$$$$$$$$$$  O+++OOO++OO++OOO+++OOO $$$$$$$$$$$$$$$$$",
"$$$$$$$$$$$$$$$$$$  O+++OOO++OO++OOO+++OOO $$$$$$$$$$$$$$$$$",
"$$$$$$$$$$$$$$$$$$  OO++++++O+++O+++OOOOOO $$$$$$$$$$$$$$$$$",
"$$$$$$$$$$$$$$$$$    OOOOOOO++++OOOOOOOO     $$$$$$$$$$$$$$$",
"$$$$$$$$$$$$$$$         OOOOO++O+OOOOO        $$$$$$$$$$$$$$",
"$$$$$$$$$$$$$$$         OOOOO++O+OOOOO        $$$$$$$$$$$$$$",
"$$$$$$$$$$$$$$$            OOOOOOOO           $$$$$$$$$$$$$$",
"$$$$$$$$$$$$$$$$$                            $$$$$$$$$$$$$$$",
"$$$$$$$$$$$$$$$$$                            $$$$$$$$$$$$$$$",
"$$$$$$$$$$$$$$$$$$$$$                   $$$$$$$$$$$$$$$$$$$$",
"$$$$$$$$$$$$$$$$$$$$$$$$$$$$$$$$$$$$$$$$$$$$$$$$$$$$$$$$$$$$",
"$$$$$$$$$$$$$$$$$$$$$$$$$$$$$$$$$$$$$$$$$$$$$$$$$$$$$$$$$$$$",
"$$$$$$$$$$$$$$$$$$$$$$$$$$$$$$$$$$$$$$$$$$$$$$$$$$$$$$$$$$$$",
"$$$$$$$$$$$$$$$$$$$$$$$$$$$$$$$$$$$$$$$$$$$$$$$$$$$$$$$$$$$$",
"$$$$$$$$$$$$$$$$$$$$$$$$$$$$$$$$$$$$$$$$$$$$$$$$$$$$$$$$$$$$",
"$$$$$$$$$$$$$$$$$$$$$$$$$$$$$$$$$$$$$$$$$$$$$$$$$$$$$$$$$$$$",
"$$$$$$$$$$$$$$$$$$$$$$$$$$$$$$$$$$$$$$$$$$$$$$$$$$$$$$$$$$$$"
};
