/* XPM */
static char *result[] = {
/* columns rows colors chars-per-pixel */
"60 60 10 1 ",
"  c black",
". c #006800",
"X c #704000",
"o c #F8A800",
"O c #A01C99",
"+ c #B820B0",
"@ c #C858D8",
"# c #F8E088",
"$ c #E090F8",
"% c None",
/* pixels */
"%%%%%%%%%%%%%%%%%%%%%%%%%%%%%%%%%%%%%%%%%%%%%%%%%%%%%%%%%%%%",
"%%%%%%%%%%%%%%%%%%%%%%%%%%%%%%%%%%%%%%%%%%%%%%%%%%%%%%%%%%%%",
"%%%%%%%%%%%%%%%%%%%%%%%%%%%%%%%%%%%%%%%%%%%%%%%%%%%%%%%%%%%%",
"%%%%%%%%%%%%%%%%%%%%%%%%%%%%%%%%%%%%%%%%%%%%%%%%%%%%%%%%%%%%",
"%%%%%%%%%%%%%%%%%%%%%%%%%%%%%%%%%%%%%%%%%%%%%%%%%%%%%%%%%%%%",
"%%%%%%%%%%%%%%%%%%%%%%%%%%%%%%%%%%%%%%%%%%%%%%%%%%%%%%%%%%%%",
"%%%%%%%%%%%%%%%%%%%%%    %%%%%%%%%%       %%%%%%%%%%%%%%%%%%",
"%%%%%%%%%%%%%%%%%%%%%    %%%%%%%%%%       %%%%%%%%%%%%%%%%%%",
"%%%%%%%%%%%%%%%%%%%% X## %%%%%%% XX####### %%%%%%%%%%%%%%%%%",
"%%%%%%%%%%%%%%%%%%%% #  %%%    X###o    oo#  %%%%%%%%%%%%%%%",
"%%%%%%%%%%%%%%%%%%%% #oo XX#####o   XXo   o  %%%%%%%%%%%%%%%",
"%%%%%%%%%%%%%%%%%%%% #oo XX#####o   XXo   o  %%%%%%%%%%%%%%%",
"%%%%%%%%%%%%%%%%%%%%%X#####o   o    oo .  o  %%%%%%%%%%%%%%%",
"%%%%%%%%%%%%%%%%%%%%%%      .  o .. ooX XXo  %%%%%%%%%%%%%%%",
"%%%%%%%%%%%%%%%%%%%%%%      .  o .. ooX XXo  %%%%%%%%%%%%%%%",
"%%%%%%%%%%%%%%%%%%%%%%%%%%%  XXo   .  oooo %%%%%%%%%%%%%%%%%",
"%%%%%%%%%%%%%%%%%%%%%%%%   @ ooo ++       %%%%%%%%%%%%%%%%%%",
"%%%%%%%%%%%%%%%%%%%%%   $++$ ooX$++@++  %%%%%%%%%%%%%%%%%%%%",
"%%%%%%%%%%%%%%%%%%%%%   $++$ ooX$++@++  %%%%%%%%%%%%%%%%%%%%",
"%%%%%%%%%%%%%%%%%%%% +@@@$$$@   @++$++@@  %%%%%%%%%%%%%%%%%%",
"%%%%%%%%%%%%%%%%%%  +$$$$@@$$@@++$$@++@+++ %%%%%%%%%%%%%%%%%",
"%%%%%%%%%%%%%%%%%%  +$$$$@@$$@@++$$@++@+++ %%%%%%%%%%%%%%%%%",
"%%%%%%%%%%%%%%%%%%  $$@@@$$@$$$$$@@+@@+@@@ %%%%%%%%%%%%%%%%%",
"%%%%%%%%%%%%%%%%% ++$@$$@$$@$@@@+++@$$@@+++  %%%%%%%%%%%%%%%",
"%%%%%%%%%%%%%%%%% @@$@$$$@@$$@@@@@@$$$@@@@@  %%%%%%%%%%%%%%%",
"%%%%%%%%%%%%%%%%% @@$@$$$@@$$@@@@@@$$$@@@@@  %%%%%%%%%%%%%%%",
"%%%%%%%%%%%%%%%  @@@$$@@@$$$@$$$$$$@$$$@+++++  %%%%%%%%%%%%%",
"%%%%%%%%%%%%%%%  @$$@$$$$$$@$$$@@$$$@@@@@@@++  %%%%%%%%%%%%%",
"%%%%%%%%%%%%%%%  +$$$@@@@@@$$@@$$@@$$$$@+++++  %%%%%%%%%%%%%",
"%%%%%%%%%%%%%%%  +$$$@@@@@@$$@@$$@@$$$$@+++++  %%%%%%%%%%%%%",
"%%%%%%%%%%%%%%%  $++$$$$$$$$$@@$@@@$@@@+@@@++  %%%%%%%%%%%%%",
"%%%%%%%%%%%%%%%  @++@$@@@@@$@@@$$$$@$$+@@@+++  %%%%%%%%%%%%%",
"%%%%%%%%%%%%%%%  @++@$@@@@@$@@@$$$$@$$+@@@+++  %%%%%%%%%%%%%",
"%%%%%%%%%%%%%%%  @++@+$$$$$@@$$@@@@$@@+@+++++  %%%%%%%%%%%%%",
"%%%%%%%%%%%%%%%  +@@+$$$+$$$@@@@@$$@@@+@@@+++  %%%%%%%%%%%%%",
"%%%%%%%%%%%%%%%%  @@+@++$@@$@$$@@@@+++@++++  %%%%%%%%%%%%%%%",
"%%%%%%%%%%%%%%%%  @@+@++$@@$@$$@@@@+++@++++  %%%%%%%%%%%%%%%",
"%%%%%%%%%%%%%%%%  @@+@++@@@+@@@+@@@@@@+@+++  %%%%%%%%%%%%%%%",
"%%%%%%%%%%%%%%%%%%  +@@@+++@@++@@+++@@@+++  %%%%%%%%%%%%%%%%",
"%%%%%%%%%%%%%%%%%%  +@@@+++@@++@@+++@@@+++  %%%%%%%%%%%%%%%%",
"%%%%%%%%%%%%%%%%%%% ++@@@@@@+@@@+@@@++++++ %%%%%%%%%%%%%%%%%",
"%%%%%%%%%%%%%%%%%%%  +++++++@@@@++++++++   %%%%%%%%%%%%%%%%%",
"%%%%%%%%%%%%%%%%%%%%    +++++@@+@+++++   %%%%%%%%%%%%%%%%%%%",
"%%%%%%%%%%%%%%%%%%%%%   O++++@@+@+++++   %%%%%%%%%%%%%%%%%%%",
"%%%%%%%%%%%%%%%%%%%%       ++++++++       %%%%%%%%%%%%%%%%%%",
"%%%%%%%%%%%%%%%%%%                          %%%%%%%%%%%%%%%%",
"%%%%%%%%%%%%%%%%                             %%%%%%%%%%%%%%%",
"%%%%%%%%%%%%%%%                               %%%%%%%%%%%%%%",
"%%%%%%%%%%%%%%%                               %%%%%%%%%%%%%%",
"%%%%%%%%%%%%%%%                                %%%%%%%%%%%%%",
"%%%%%%%%%%%%%%%                               %%%%%%%%%%%%%%",
"%%%%%%%%%%%%%%%                               %%%%%%%%%%%%%%",
"%%%%%%%%%%%%%%%%                             %%%%%%%%%%%%%%%",
"%%%%%%%%%%%%%%%%%                           %%%%%%%%%%%%%%%%",
"%%%%%%%%%%%%%%%%%%                         %%%%%%%%%%%%%%%%%",
"%%%%%%%%%%%%%%%%%%%%                     %%%%%%%%%%%%%%%%%%%",
"%%%%%%%%%%%%%%%%%%%%%                   %%%%%%%%%%%%%%%%%%%%",
"%%%%%%%%%%%%%%%%%%%%%%%               %%%%%%%%%%%%%%%%%%%%%%",
"%%%%%%%%%%%%%%%%%%%%%%%%%%%%%%%%%%%%%%%%%%%%%%%%%%%%%%%%%%%%",
"%%%%%%%%%%%%%%%%%%%%%%%%%%%%%%%%%%%%%%%%%%%%%%%%%%%%%%%%%%%%"
};
