/* XPM */
static char *result[] = {
/* columns rows colors chars-per-pixel */
"60 60 237 2 ",
"   c #180D17",
".  c #141215",
"X  c #1B161C",
"o  c #1B1A1C",
"O  c #15181A",
"+  c #0D0F11",
"@  c #29190D",
"#  c #371507",
"$  c #271A19",
"%  c #361A15",
"&  c #2B0E16",
"*  c #3C280E",
"=  c #25211C",
"-  c #362917",
";  c #2F2D12",
":  c #1B1D23",
">  c #181B26",
",  c #260C28",
"<  c #271A28",
"1  c #381C29",
"2  c #281935",
"3  c #341635",
"4  c #320D38",
"5  c #1C2224",
"6  c #1D232A",
"7  c #172629",
"8  c #193836",
"9  c #142D31",
"0  c #242424",
"q  c #24252A",
"w  c #2A252B",
"e  c #2C2C2C",
"r  c #262828",
"t  c #382728",
"y  c #38322A",
"u  c #2C2D33",
"i  c #282836",
"p  c #332A37",
"a  c #2E3235",
"s  c #2B353A",
"d  c #323234",
"f  c #32353B",
"g  c #34393C",
"h  c #3B383B",
"j  c #2E362A",
"k  c #451406",
"l  c #561811",
"z  c #44231B",
"x  c #472418",
"c  c #7A340D",
"v  c #481D29",
"b  c #571834",
"n  c #482728",
"m  c #582924",
"M  c #462634",
"N  c #542B38",
"B  c #473537",
"V  c #573538",
"C  c #5E302F",
"Z  c #693C3A",
"A  c #6F2E36",
"S  c #6D1827",
"D  c #1E433D",
"F  c #26443C",
"G  c #275539",
"H  c #33633E",
"J  c #78443B",
"K  c #6D453C",
"L  c #341A43",
"P  c #272E4D",
"I  c #382748",
"U  c #233844",
"Y  c #3A3B41",
"T  c #383358",
"R  c #392A56",
"E  c #2A3252",
"W  c #4E1443",
"Q  c #4A2949",
"!  c #573946",
"~  c #462B56",
"^  c #463558",
"/  c #503153",
"(  c #683B43",
")  c #783E4A",
"_  c #572D69",
"`  c #4B3364",
"'  c #4C336B",
"]  c #473868",
"[  c #56366C",
"{  c #4C3772",
"}  c #523573",
"|  c #55367D",
" . c #543A7C",
".. c #563879",
"X. c #4C2D68",
"o. c #663677",
"O. c #6A3475",
"+. c #1F4442",
"@. c #244C45",
"#. c #254945",
"$. c #295543",
"%. c #35494E",
"&. c #2C6744",
"*. c #366848",
"=. c #327843",
"-. c #2F7148",
";. c #3A4D61",
":. c #44464A",
">. c #494C51",
",. c #4D5358",
"<. c #52575B",
"1. c #684447",
"2. c #764848",
"3. c #75504F",
"4. c #545C67",
"5. c #4D5B6E",
"6. c #6B5266",
"7. c #5C6268",
"8. c #586678",
"9. c #4E6078",
"0. c #616876",
"q. c #427442",
"w. c #952B17",
"e. c #8D2C2F",
"r. c #A62424",
"t. c #D63D36",
"y. c #B74C19",
"u. c #85493A",
"i. c #8C5338",
"p. c #B14B24",
"a. c #C7482B",
"s. c #D64237",
"d. c #853C45",
"f. c #D83F44",
"g. c #834C43",
"h. c #8B4E44",
"j. c #864B4A",
"k. c #8C524C",
"l. c #8A5247",
"z. c #91544D",
"x. c #955749",
"c. c #8A5757",
"v. c #955C53",
"b. c #995C53",
"n. c #8A4C58",
"m. c #996259",
"M. c #986252",
"N. c #A66A5A",
"B. c #834867",
"V. c #936D65",
"C. c #AD7367",
"Z. c #B67A63",
"A. c #BB7E6B",
"S. c #B57968",
"D. c #B87A72",
"F. c #A66F63",
"G. c #B14C57",
"H. c #CE4A45",
"J. c #C64761",
"K. c #39923B",
"L. c #398645",
"P. c #BC836B",
"I. c #BC8267",
"U. c #B98778",
"Y. c #B0887A",
"T. c #F29351",
"R. c #E3A05A",
"E. c #C2856C",
"W. c #C48A6B",
"Q. c #C78B6B",
"!. c #C38672",
"~. c #C69278",
"^. c #D79B75",
"/. c #D6986D",
"(. c #F39968",
"). c #DBA37B",
"_. c #DBA769",
"`. c #E3A778",
"'. c #FADA71",
"]. c #563683",
"[. c #583684",
"{. c #563882",
"}. c #5C3787",
"|. c #66398A",
" X c #773A88",
".X c #743A96",
"XX c #6D2E89",
"oX c #784498",
"OX c #754F8E",
"+X c #7C45A2",
"@X c #506781",
"#X c #8D3F97",
"$X c #855A95",
"%X c #834A95",
"&X c #8D49AD",
"*X c #8847A7",
"=X c #9349AC",
"-X c #8E48B1",
";X c #9A4BB3",
":X c #9752AB",
">X c #B858B9",
",X c #A750B5",
"<X c #B768B7",
"1X c #B975B5",
"2X c #AF78AD",
"3X c #C65BBA",
"4X c #C268BC",
"5X c #BB59C4",
"6X c #BA67C4",
"7X c #B971C0",
"8X c #C95CC7",
"9X c #C763C8",
"0X c #B79386",
"qX c #B98C88",
"wX c #AE81A7",
"eX c #C99885",
"rX c #D8A988",
"tX c #D7B296",
"yX c #E3A98A",
"uX c #E6AA97",
"iX c #FFD785",
"pX c #FFD998",
"aX c #FCE58A",
"sX c #FDDCA4",
"dX c #FAEEA9",
"fX c #B3BECB",
"gX c #AEBDCF",
"hX c #D0BFC8",
"jX c #B8C4CD",
"kX c #B3C3D3",
"lX c #B8C6D7",
"zX c #ADC0D5",
"xX c #C5C8D6",
"cX c #FEFEFE",
"vX c #F9FAFC",
"bX c #E4EFF9",
"nX c None",
/* pixels */
"nXnXnXnXnXnXnXnXnXnXnXnXnXnXnXnXnXnXnXnXnXnXnXnXnXnXnXnXnXnXnXnXnXnXnXnXnXnX5.nXnXnXnXnXnXnXnXnXnXnXnXnXnXnXnXnXnXnXnXnX",
"nXnXnXnXnXnXnXnXnXnXnXnXnXnXnXq nXnXnXnXnXnXnXnXnXnXnXnXnXnXnXnXnXnXnXnXnX9.5.nXnXnXnXnXnXnXnXnXnXnXnXnXnXnXnXnXnXnXnXnX",
"nXnXnXnXnXnXnXnXnXnXnXnXnXnX> 5 nXnXnXnXnXnXnXnXnXnXnXnXnX0 o nXnXnXnXnX> kX5.nXnXnXnXnXnXnXnXnXnXnXnXnXnXnXnXnXnXnXnXnX",
"nXnXnXnXnXnXnXnXnXnXnXnXnX6 9.nXnXnXnXnX$ d u . nX. u f O w d o nXnXnX6 xXbX9.nXnXnXnXnXnXnXnXnXnXnXnXnXnXnXnXnXnXnXnXnX",
"nXnXnXnXnXnXnXnXnXnXnXnXnX6 8.nXnX  nXnXnXr f o + ,.g i d f d o nX  o 6 fXvX5.nXnXnXnXnXnXnXnXnXnXnXnXnXnXnXnXnXnXnXnXnX",
"nXnXnXnXnXnXnXnXnXnXnXnX> 0.0.nXnXX o o nXr >.q 5 >.a :.>.f : nX+ a d 6 jXcX5.nXnXnXnXnXnXnXnXnXnXnXnXnXnXnXnXnXnXnXnXnX",
"nXnXnXnXnXnXnXnXnXnXnXnX> 8.xXnXnXO d f 5 g <.d a ,.Y ,.,.g e O e h f q jXkXlX4.nXnXnXnXnXnXnXnXnXnXnXnXnXnXnXnXnXnXnXnX",
"nXnXnXnXnXnXnXnXnXnXnXnX: fXjXnXnXo u <.<.f h f f g f f g f g 7.4.g : cX7 5.zXzXnXnXnXnXnXnXnXnXnXnXnXnXnXnXnXnXnXnXnXnX",
"nXnXnXnXnXnXnXnXnXnXnXnX> jXjXnXnX9 s 4.>.B ! B B - y y d a %.<.%.0 cXcXcX> gXlXcXcXnXnXnXnXnXnXnXnXnXnXnXnXnXnXnXnXnXnX",
"nXnXnXnXnXnXnXnXnXnXnXnX: jXjXi i %.;.4.d :.3.2.F.~.).m t r d f s 6 cXcXcX6 gXzX5 5 r nXnXnXnXnXnXnXnXnXnXnXnXnXnXnXnXnX",
"nXnXnXnXnXnXnXnXnXnXnXq 5 lXlX9.@X@X9.%.h K m.l.Q.i.rXC tX= g g 7 > > r d > gXgX6 7.g : nXnXnXnXnXnXnXnXnXnXnXnXnXnXnXnX",
"nXnXnXnXnXnXnXX d a d f s s q i i s i u d % U.Z.c.V - r eX= f %.kXjXkXkXkXgXgXjXu u 5 : X ^ nXnXnXnXnXnXnXnXnXnXnXnXnXnX",
"nXnXnXnXnXnXnXnXo q q f f f a a s a a r w $ # E.n e e e 0Xq g s > 7 > kXzX8.> 5 a <.r 6 > oX^ ^ ` nXnXnXnXnXnXnXnXnXnXnX",
"nXnXnXnXnXnXnXnXnXnX: f f f f >.,.Y s r e ! @ E.~.2.Y.3.V.5 f g <.,.s 5 O s s :.j <.4.7.f 4 +X&X6X_ nXnXnXnXnXnXnXnXnXnX",
"nXnXnXnXnXnXnXnXnX+ a f f f d <.7.h e 0 w B - l.g.n % % B u g g 7.>.f d q 0 Y 4.j Q e q u 3 *XXX9XO.' nXnXnXnXnXnXnXnXnX",
"nXnXnXnXnXnXnXnXnX2 p s s e # s ,.g e 3.0 f ! G.e.) A.I.1 y a f d t t n 2.U.- s = w i ^ ..6X5X8XXXnXnXnXnXnXnXnXnXnXnXnX",
"nXnXnXnXnXnX^  .}.| [ 2 y k ^.u f f w 2.t 3.%.vXxX2.U.V.1 1.r f w 1.c.g.u.l.D.@ tXk w ` |.XX,X5X8X6.nXnXnXnXnXnXnXnXnXnX",
"nXnXnXnXnXnXnXOXOXOX[.P z (.e.1 s f 1 g.t 3.1.1.1.Y.0Xy t 2.w d < 2.Z.^.`.x.N.Q.).u.M } oX-X-X;X8X8X.XnXnXnXnXnXnXnXnXnX",
"nXnXnXnXnXnXnX  < $XoX` v e.e.# t 1 e.e.3.= j j y s y B t 3.t B V K S.Q.^.yXN.Z.E.J ..].+X-X,X;X,X5X,X..nXnXnXnXnXnXnXnX",
"nXnXnXnXnXnXnX' ` OX.Xo.S e.y.y.H.f.T.k w.dXr 1.M 1.- qXI.P.Y.# A.z.h.z.b.Q.E.Z.m n 6.o.XX,X8X8X5XXX}.].] nXnXnXnXnXnXnX",
"nXnXnXnXnXnX[ -X+X*X|.m pXp.'.'.s.T.k `.e.c sXuXJ F.U.E.^.~.W.tXrXu.!.l.D.P.!.C.2.Y.rX) o.=X,X8X8Xo.nXnXnXnXnXnXnXnXnXnX",
"nXnXnXnXnX, OXL 2 *XW pXa.f.w.iXa.r.% c pXpXc e.Z.A.W.W./.^.Q.uXtXP.P.A.h.g.m k.j.A.(.`.2. X;X,X8X6X_ nXnXnXnXnXnXnXnXnX",
"nXnXnXnXnX< < nX= W J.y.pXw.T.p.iXw.n e.a.p.pXx.h.u.M.I.Q.U.n * `.u.k.k.2.C g.A.h.A.Q.Q.j.6.=X;X;X>X<X} nXnXnXnXnXnXnXnX",
"nXnXnXnXnX+ nXnX, b H.y.aXr.a.p.iXT.l v U.Z.I.uXA.W.I.Z.eXx U.W.Z.h.j.N m x !.h.!.b.Z.h.Z.B.=X=X&X4 $X2 nXnXnXnXnXnXnXnX",
"nXnXnXnXnXnXnX[ $X/ sXaXpXw.s.'.a.t.S qXB j.u.uXS.S.k.j.n U.W.E.z.u.e.A.2.x !.N.E.E.h.!.^.B.=X=X*XnXo = nXnXnXnXnXnXnXnX",
"nXnXnXnXnXnXnX%X|...W e.p.pXe.a.t.(.l t V n.z.h.h.x.b.j.V 2.A.N.u.yXu.P.U.z D.A.P.W.h.A./.) -X=X:XnXX nXnXnXnXnXnXnXnXnX",
"nXnXnXnXnXnX2 $X{.{ f & (.e.l s.T.l ; t 1.M.E.P.I.E.E.h.B k.u.J uXeXg.C.( M eXD.A.Z.b.N.!.Q &X;X8XO.nXnXnXnXnXnXnXnXnXnX",
"nXnXnXnXnXnX: nX2 2 7.: q * '.l sX'.@ 2.B l.!.!.S.!.P.^.uXx U.Z z C N V [ } ~ N v.u.A.!.v  X&X=X-X>X4X_ nXnXnXnXnXnXnXnX",
"nXnXnXnXnXnXnX. T i d R.dX; * - * @ ; K B l.P.v.b.b.N.I.P.Z m j.2.Z Z M [ ~ Q N C.D.P.k / -X-X-X-XL 1X<X, nXnXnXnXnXnXnX",
"nXnXnXnXnXnXnXR | I = R.y h m.eXU.Y.% 1.B u.b.S.Z.E./.u.g.2.n Y.A.P.v.V N c.3.) V.m z M _ &X-X=X;X4 < < < nXnXnXnXnXnXnX",
"nXnXnXnXnXnXnX` ].p t y y M.E.^.W.z.2.V B v.Z.A.Z.Q.Q.yXh.2.1.* E.x.j.N 2.v.v.k.g.l.Y.v | -X;X5X8X4 nXnX< nXnXnXnXnXnXnX",
"nXnXnXnXnXnXnX .Y ).T.- m.W.W.Z.h.k.k.B Q v.N.x.h.h.N.C.k.l.0Xn h.j.Z Z v.v.b.z.M.W.).z _ +X*X=X3X8Xo.nXnXnXnXnXnXnXnXnX",
"nXnXnXnXnXnXi ].| 3 ^.# P.E.I.x.z.v.b.( B 2.j.z.D.N.h.j.c.qX0XB 3.1.t c.M.M.x.v.F.).rXM [ .X&X=X:X<X XnXnXnXnXnXnXnXnXnX",
"nXnXnXnXnXnXp ` ' {.Q V.E.E.N.x.z.c.v.2.B M N V.0X0XV.t Q ^ I ^ Q # # K c.v.M.W.u.x < ` |.&X&X*XOX$X$Xw nXnXnXnXnXnXnXnX",
"nXnXnXnXnXo o < p ` | n S.F.k.v.v.j.c.C ! W 2X$ $ $ $ $ 2XI Q .X1 R.T.x z 3.W./.).Y.t X.+X&X&X&XX   : 0 nXnXnXnXnXnXnXnX",
"nXnXnXnXnXnXnX0 i I { / ( k.v.j.v.Z 2.2.M 4 xXvXcXcXvXX  X X8X3X<X% ; ).- y z U.@ Q ..{.|.&X&X%X< nXnXnXnXnXnXnXnXnXnXnX",
"nXnXnXnXnXnXnXnXnXnX2 ' M N N V C N ( Z / ~ 5.T A A A 6.`  X;X4XW n.c.@ f - dXy ~ | [.[.}.-X;X>X<X: nXnXnXnXnXnXnXnXnXnX",
"nXnXnXnXnXnXnXnX. : I ..[ ` / X._ Q M [ I lXlXlXb b vXxX3 >XO.W n.m.b.c.@ _.; - < } [.].[..X;X%X4 nXnXnXnXnXnXnXnXnXnXnX",
"nXnXnXnXnXnXnXX ` ` { ..| [ Q 7X#X X2XL ^ 9 5.t e.A 1 4.3 1X! n.b.b.b.z.eXz - aX@ ' ].].[.*X-X;X1XnXnXnXnXnXnXnXnXnXnXnX",
"nXnXnXnXnXnXnX^ { i 2 {.' 3 oX>X3X3X4 ] 2 kX5.jXb v cX4.xXv z m i.z.z.S.C.( ~ ^ I ' ].[.+X=X&X;X5X4 1 nXnXnXnXnXnXnXnXnX",
"nXnXnXnXnXnXnXo > nX$ {.' R [  X>X4X2 [ i kXgXxXZ B cXcXp z E.Q.`.u.S.D.1./ | ]. .].].}.*X&X*XXXo.<X$Xw X nXnXnXnXnXnXnX",
"nXnXnXnXnXnXnXnXnXnX2  .{.{ R #X>X4 r T T 7 lX7 #.5 4.o / n ~.yXrXh.j.2./  .].[.].].}.+X-X-X,X6X` : . X nXnXnXnXnXnXnXnX",
"nXnXnXnXnXnXnXnXnX< } [.[.{.X.1X1X< #.8 i 9 5.xXF 8 cXcXp h B 2.e.W.i.U._ ].[.[.].[.oX+X+X,X8X9X` nXnXnXnXnXnXnXnXnXnXnX",
"nXnXnXnXnXnXnX. ^ { {.{.[.[.[.P U #.@.@.@.s 7 #.8 8 F 7 *.*.H j - * x t } ].}.[.].].}..X*X#XXX6X1XnXnXnXnXnXnXnXnXnXnXnX",
"nXnXnXnXnXnXnX: i 2 } ].[.[.[.] P +.@.@.@.@.#.@.8 9 8 +.-.=.L.=.q.H *.%.T ].[.[.].]..X-X-X4 nXO.$XnXnXnXnXnXnXnXnXnXnXnX",
"nXnXnXnXnXnXnXo nXnX2 | } | ]. .P +.@.@.@.@.@.@.8 T ] U &.=.K.K.K.K.K.H U ].].[.}.oX-X&X*X, nXnX< nXnXnXnXnXnXnXnXnXnXnX",
"nXnXnXnXnXnXnXnXnX. ^ { R | [. .E +.@.@.+.@.#.+.E ].{.] @.-.-.-.K.K.K.L.U ].].[..X*X-X&X&XwX+ nXnXnXnXnXnXnXnXnXnXnXnXnX",
"nXnXnXnXnXnXnXnXnX+ O w ~ ].].{.T 8 +.+.U @.#.+.] ].].].] U &.-.-.=.K.H @.E {.}.*X-X-X*X*X< O . nXnXnXnXnXnXnXnXnXnXnXnX",
"nXnXnXnXnXnXnXnXnXnXnXp ..[.].|  .s D 8 F F F +.{ ].[.[.].] U &.$.&.-.@.$.U ` ^ OX&XoX|.:X, nXnXnXnXnXnXnXnXnXnXnXnXnXnX",
"nXnXnXnXnXnXnXnXnXnXnXR {.| [.' } i 5 r e 5 i T [.[.[.].].{.T U G F F F F 5 X O OX*X3 ^ 7X1X, nXnXnXnXnXnXnXnXnXnXnXnXnX",
"nXnXnXnXnXnXnXnXnXnX: { [.| ' I ' I 0 e f u P ' ].].[.[.].{ I ] 5 7 r r 7 . nXnX, $X2 nX~ 4XwX< nXnXnXnXnXnXnXnXnXnXnXnX",
"nXnXnXnXnXnXnXnXnX  w p p 2 nXnX> nXo e u q < nX' ].R ' ] 2 nXI ' d j d o nXnXnXnX, nXnXnXnXnXnXnXnXnXnXnXnXnXnXnXnXnXnX",
"nXnXnXnXnXnXnXnXnXnXnXnXnXnXnXnXnXnXnXo h o nXnX^ I nX< T < nXnX' p r d o nXnXnXnXnXnXnXnXnXnXnXnXnXnXnXnXnXnXnXnXnXnXnX",
"nXnXnXnXnXnXnXnXnXnXnXnXnXnXnXnXnXnXnXo h o nXnXi nXnXnX2 nXnXnX] p = e h . nXnXnXnXnXnXnXnXnXnXnXnXnXnXnXnXnXnXnXnXnXnX",
"nXnXnXnXnXnXnXnXnXnXnXnXnXnXnXnXnX. O r a O nXnXnXnXnXnXnXnXnXnXq nXo e h h   nXnXnXnXnXnXnXnXnXnXnXnXnXnXnXnXnXnXnXnXnX",
"nXnXnXnXnXnXnXnXnXnXnXnXnXnXnX0 r j j a :.! o nXnXnXnXnXnXnXnXnXnXnXo a d g f r nXnXnXnXnXnXnXnXnXnXnXnXnXnXnXnXnXnXnXnX",
"nXnXnXnXnXnXnXnXnXnXnXnXnXnX0 e e r e F ^ d o nXnXnXnXnXnXnXnXnXnXnXo r Y :.>.:.w nXnXnXnXnXnXnXnXnXnXnXnXnXnXnXnXnXnXnX",
"nXnXnXnXnXnXnXnXnXnXnXnXnXnX1 M M M v n M t $ nXnXnXnXnXnXnXnXnXnXnX. $ Y :.! %.h q nXnXnXnXnXnXnXnXnXnXnXnXnXnXnXnXnXnX",
"nXnXnXnXnXnXnXnXnXnXnXnXnXnXnXnXnXnXnXnXnXnXnXnXnXnXnXnXnXnXnXnXnXnXnXnXt v v M n nXnXnXnXnXnXnXnXnXnXnXnXnXnXnXnXnXnXnX",
"nXnXnXnXnXnXnXnXnXnXnXnXnXnXnXnXnXnXnXnXnXnXnXnXnXnXnXnXnXnXnXnXnXnXnXnXnXnXnXnXnXnXnXnXnXnXnXnXnXnXnXnXnXnXnXnXnXnXnXnX"
};
