/* XPM */
static char *result[] = {
/* columns rows colors chars-per-pixel */
"60 60 237 2 ",
"   c #180D17",
".  c #141215",
"X  c #1B161C",
"o  c #1B1A1C",
"O  c #15181A",
"+  c #0D0F11",
"@  c #29190D",
"#  c #371507",
"$  c #271A19",
"%  c #361A15",
"&  c #2B0E16",
"*  c #3C280E",
"=  c #25211C",
"-  c #362917",
";  c #2F2D12",
":  c #1B1D23",
">  c #181B26",
",  c #260C28",
"<  c #271A28",
"1  c #381C29",
"2  c #281935",
"3  c #341635",
"4  c #320D38",
"5  c #1C2224",
"6  c #1D232A",
"7  c #172629",
"8  c #193836",
"9  c #142D31",
"0  c #242424",
"q  c #24252A",
"w  c #2A252B",
"e  c #2C2C2C",
"r  c #262828",
"t  c #382728",
"y  c #38322A",
"u  c #2C2D33",
"i  c #282836",
"p  c #332A37",
"a  c #2E3235",
"s  c #2B353A",
"d  c #323234",
"f  c #32353B",
"g  c #34393C",
"h  c #3B383B",
"j  c #2E362A",
"k  c #451406",
"l  c #561811",
"z  c #44231B",
"x  c #472418",
"c  c #7A340D",
"v  c #481D29",
"b  c #571834",
"n  c #482728",
"m  c #582924",
"M  c #462634",
"N  c #542B38",
"B  c #473537",
"V  c #573538",
"C  c #5E302F",
"Z  c #693C3A",
"A  c #6F2E36",
"S  c #6D1827",
"D  c #1E433D",
"F  c #26443C",
"G  c #275539",
"H  c #33633E",
"J  c #78443B",
"K  c #6D453C",
"L  c #341A43",
"P  c #272E4D",
"I  c #382748",
"U  c #233844",
"Y  c #3A3B41",
"T  c #383358",
"R  c #392A56",
"E  c #2A3252",
"W  c #4E1443",
"Q  c #4A2949",
"!  c #573946",
"~  c #462B56",
"^  c #463558",
"/  c #503153",
"(  c #683B43",
")  c #783E4A",
"_  c #572D69",
"`  c #4B3364",
"'  c #4C336B",
"]  c #473868",
"[  c #56366C",
"{  c #4C3772",
"}  c #523573",
"|  c #55367D",
" . c #543A7C",
".. c #563879",
"X. c #4C2D68",
"o. c #663677",
"O. c #6A3475",
"+. c #1F4442",
"@. c #244C45",
"#. c #254945",
"$. c #295543",
"%. c #35494E",
"&. c #2C6744",
"*. c #366848",
"=. c #327843",
"-. c #2F7148",
";. c #3A4D61",
":. c #44464A",
">. c #494C51",
",. c #4D5358",
"<. c #52575B",
"1. c #684447",
"2. c #764848",
"3. c #75504F",
"4. c #545C67",
"5. c #4D5B6E",
"6. c #6B5266",
"7. c #5C6268",
"8. c #586678",
"9. c #4E6078",
"0. c #616876",
"q. c #427442",
"w. c #952B17",
"e. c #8D2C2F",
"r. c #A62424",
"t. c #D63D36",
"y. c #B74C19",
"u. c #85493A",
"i. c #8C5338",
"p. c #B14B24",
"a. c #C7482B",
"s. c #D64237",
"d. c #853C45",
"f. c #D83F44",
"g. c #834C43",
"h. c #8B4E44",
"j. c #864B4A",
"k. c #8C524C",
"l. c #8A5247",
"z. c #91544D",
"x. c #955749",
"c. c #8A5757",
"v. c #955C53",
"b. c #995C53",
"n. c #8A4C58",
"m. c #996259",
"M. c #986252",
"N. c #A66A5A",
"B. c #834867",
"V. c #936D65",
"C. c #AD7367",
"Z. c #B67A63",
"A. c #BB7E6B",
"S. c #B57968",
"D. c #B87A72",
"F. c #A66F63",
"G. c #B14C57",
"H. c #CE4A45",
"J. c #C64761",
"K. c #39923B",
"L. c #398645",
"P. c #BC836B",
"I. c #BC8267",
"U. c #B98778",
"Y. c #B0887A",
"T. c #F29351",
"R. c #E3A05A",
"E. c #C2856C",
"W. c #C48A6B",
"Q. c #C78B6B",
"!. c #C38672",
"~. c #C69278",
"^. c #D79B75",
"/. c #D6986D",
"(. c #F39968",
"). c #DBA37B",
"_. c #DBA769",
"`. c #E3A778",
"'. c #FADA71",
"]. c #563683",
"[. c #583684",
"{. c #563882",
"}. c #5C3787",
"|. c #66398A",
" X c #773A88",
".X c #743A96",
"XX c #6D2E89",
"oX c #784498",
"OX c #754F8E",
"+X c #7C45A2",
"@X c #506781",
"#X c #8D3F97",
"$X c #855A95",
"%X c #834A95",
"&X c #8D49AD",
"*X c #8847A7",
"=X c #9349AC",
"-X c #8E48B1",
";X c #9A4BB3",
":X c #9752AB",
">X c #B858B9",
",X c #A750B5",
"<X c #B768B7",
"1X c #B975B5",
"2X c #AF78AD",
"3X c #C65BBA",
"4X c #C268BC",
"5X c #BB59C4",
"6X c #BA67C4",
"7X c #B971C0",
"8X c #C95CC7",
"9X c #C763C8",
"0X c #B79386",
"qX c #B98C88",
"wX c #AE81A7",
"eX c #C99885",
"rX c #D8A988",
"tX c #D7B296",
"yX c #E3A98A",
"uX c #E6AA97",
"iX c #FFD785",
"pX c #FFD998",
"aX c #FCE58A",
"sX c #FDDCA4",
"dX c #FAEEA9",
"fX c #B3BECB",
"gX c #AEBDCF",
"hX c #D0BFC8",
"jX c #B8C4CD",
"kX c #B3C3D3",
"lX c #B8C6D7",
"zX c #ADC0D5",
"xX c #C5C8D6",
"cX c #FEFEFE",
"vX c #F9FAFC",
"bX c #E4EFF9",
"nX c None",
/* pixels */
"nXnXnXnXnXnXnXnXnXnXnXnXnXnXnXnXnXnXnXnX5.nXnXnXnXnXnXnXnXnXnXnXnXnXnXnXnXnXnXnXnXnXnXnXnXnXnXnXnXnXnXnXnXnXnXnXnXnXnXnX",
"nXnXnXnXnXnXnXnXnXnXnXnXnXnXnXnXnXnXnXnX5.9.nXnXnXnXnXnXnXnXnXnXnXnXnXnXnXnXnXnXnXnXnXr nXnXnXnXnXnXnXnXnXnXnXnXnXnXnXnX",
"nXnXnXnXnXnXnXnXnXnXnXnXnXnXnXnXnXnXnXnX5.lX> nXnXnXnXnXo 0 nXnXnXnXnXnXnXnXnXnXnXnXnX5 > nXnXnXnXnXnXnXnXnXnXnXnXnXnXnX",
"nXnXnXnXnXnXnXnXnXnXnXnXnXnXnXnXnXnXnXnX5.bXxX5 nXnXnXo a q o g u . nX. u p $ nXnXnXnXnX9.6 nXnXnXnXnXnXnXnXnXnXnXnXnXnX",
"nXnXnXnXnXnXnXnXnXnXnXnXnXnXnXnXnXnXnXnX5.cXfX5 o   nXo d d d e f ,.. o d r nXnXnX  nXnX8.6 nXnXnXnXnXnXnXnXnXnXnXnXnXnX",
"nXnXnXnXnXnXnXnXnXnXnXnXnXnXnXnXnXnXnXnX5.vXjX6 d u + nX: f >.:.a >.0 r >.r nXO o X nXnX0.0.> nXnXnXnXnXnXnXnXnXnXnXnXnX",
"nXnXnXnXnXnXnXnXnXnXnXnXnXnXnXnXnXnXnX4.kXlXjX6 f g a O u g ,.,.g ,.f d <.Y < a d O nXnXxX7.6 nXnXnXnXnXnXnXnXnXnXnXnXnX",
"nXnXnXnXnXnXnXnXnXnXnXnXnXnXnXnXnXnXnXkXzX5.7 cX: g 4.7.f f s Y f g f d g f <.4.a O nXnXlXfX> nXnXnXnXnXnXnXnXnXnXnXnXnX",
"nXnXnXnXnXnXnXnXnXnXnXnXnXnXnXnXnXcXcXkXgX> cXcXcX0 :.<.%.a d y t t B B B B >.4.U 7 nXnXjXjX6 nXnXnXnXnXnXnXnXnXnXnXnXnX",
"nXnXnXnXnXnXnXnXnXnXnXnXnXnXnXnXr 5 7 zXgX6 cXcXcX6 a f f w t n rX~.N.2.3.:.d 4.;.%.s s jXfX> nXnXnXnXnXnXnXnXnXnXnXnXnX",
"nXnXnXnXnXnXnXnXnXnXnXnXnXnXnX: g 7.6 zXgX> d e > > 7 U g 0 tXC rXi.E.k.m.1.h %.@X@X@X9.lXxX> q nXnXnXnXnXnXnXnXnXnXnXnX",
"nXnXnXnXnXnXnXnXnXnXnXnXnX^ O : 5 e u kXgXgXlXfXkXjXkXY g r eX- ; V c.Z.U.- y u i i i i 6 s a f d d a X nXnXnXnXnXnXnXnX",
"nXnXnXnXnXnXnXnXnXnX^ ` ^ oX< 6 r <.d 5 > 8.kXlX> > 6 s g r U.e e e n E.# $ w r a d f a u f f a q 0 : nXnXnXnXnXnXnXnXnX",
"nXnXnXnXnXnXnXnXnX_ 9X=XoX4 g 4.4.<.a >.g e O 5 s ,.4.s f r V.3.Y.2.!.P.@ ! e r d g ,.>.f f f f : nXnXnXnXnXnXnXnXnXnXnX",
"nXnXnXnXnXnXnXnX] o.8XXX*X2 u w p F e 4.F e 0 p s >.7.Y g d B - % m j.i.- h r = e %.7.<.f f f d a + nXnXnXnXnXnXnXnXnXnX",
"nXnXnXnXnXnXnXnXnXnXXX9X5X6X..^ p e = a % U.2.n t t d d a t 0 P.S.) d.G.! p = 3.t g ,.a # e f u p 2 nXnXnXnXnXnXnXnXnXnX",
"nXnXnXnXnXnXnXnXnX X9X5X;XXX|.' 1 x rX@ U.x.J u.c.1.w d w 1.t m.D.3.hXvXB 3.t 2.0 f f a ^.k p P ` {.OX..^ nXnXnXnXnXnXnX",
"nXnXnXnXnXnXnXnX X8X8X;X-X&X+X} M J ).W.G.x.`.).A.2.0 y w 2.t y 0XY.1.<.3.3.t 2.1 d a u e.(.z I [.OXOXOXnXnXnXnXnXnXnXnX",
"nXnXnXnXnXnXnXo.;X5X;X;X,X-XoX].[ 2.W.Z.N.yX^.Q.S.2.C h w 3.n B y d a j a = 3.r.e.% y k e.e.b X.oXOX<   nXnXnXnXnXnXnXnX",
"nXnXnXnXnXnX` [.}.|.>X8X8X,X|.O.3.t m Z.A.Q.b.x.h.k.S.% Y.P.I.0Xt 1.t 1.r dXw.# (.H.H.y.p.e.S _ oX6.` ' nXnXnXnXnXnXnXnX",
"nXnXnXnXnXnXnXnXnXO.8X8X,X=XO.2.uXD.Z S.!.D.D.k.~.g.rXtXP./.^.U.U.C.J uXpXc e.yXk A.a.'.'.p.pXv |.-X+X+X[ nXnXnXnXnXnXnX",
"nXnXnXnXnXnXnXnX_ 6X8X,X=X.X2.`.^.D.j.k.m j.i.S.P.P.tXyXW.)./.E.E.P.C.e.c pXpXc l r.a.iXw.f.a.pXW &X3 L oX, nXnXnXnXnXnX",
"nXnXnXnXnXnXnX[ <X>X,X;X=XB.j.Q.Q.E.h.A.h.C 2.n.k.u.).* n U.W.Z.M.i.l.x.pXp.p.e.l w.'.y.T.w.iXy.J.W : nX< < nXnXnXnXnXnX",
"nXnXnXnXnXnXnXi OX4 -X-X=Xn.Z.x.C.b.!.i.!.x n C g.l.I.W.P.x eXZ.P.P.I.uXP.P.U.M S T.iXp.t.r.iXy.H.b , nXnX+ nXnXnXnXnXnX",
"nXnXnXnXnXnXnX= X nX*X=X=Xn.).!.h.E.!.N.P.x J A.u.u.z.E.Q.D.n j.z.S.S.uXg.j.B 0XS t.a.iXH.w.iXaXdX/ OX..nXnXnXnXnXnXnXnX",
"nXnXnXnXnXnXnXnXX nX:X=X-X) ^.A.x.E.A.A.U.n U.A.J yXu.N.Z.h.V j.x.x.h.i.z.n.V 1 l (.s.a.w.sXp.e.N XXoXoXnXnXnXnXnXnXnXnX",
"nXnXnXnXnXnXnXnXnXO.8X;X-XQ E.N.x.S.A.A.eXM ( C.u.rXyXZ h.k.B u.!.W.S.P.E.b.1.y # l T.s.l e.(.@ I { }.OX1 nXnXnXnXnXnXnX",
"nXnXnXnXnXnXnX_ 3X>X-X=X-XoXx D.A.u.z.N ~ } [ N C V v A U.x tXrXA.E.S.!.!.h.V 2.@ '.dXl '.- r 5 7.q 2 nX5 nXnXnXnXnXnXnX",
"nXnXnXnXnXnX, 1X1XL -X-X&X&X/ k P.D.C.Q Q Q ` M ( K J 2.m A P.I.N.b.b.v.P.l.B 2.; @ * y - j dXR.a i ^ . nXnXnXnXnXnXnXnX",
"nXnXnXnXnXnX< < < 4 ;X=X=X=X} n z m m.2.n.c.N ! z.I.E.Y.n 2.g.i.^.E.S.S.v.g.B 2.% V.U.~.v.y * R.0 p  .R nXnXnXnXnXnXnXnX",
"nXnXnXnXnXnX< nXnX4 5X5X;X-X} v Y.l.g.k.v.M.2.N j.x.W.z ( j.j.).Q.Q.Z.A.I.v.B V 2.z.Q._.!.v.y - t p  .` nXnXnXnXnXnXnXnX",
"nXnXnXnXnXnXnXnXo.8X3X;X&X+X} x ).W.m.k.v.v.z.K ( j.h.t 0Xx.h.C.N.h.k.z.N.c.B B k.k.l.I.W.!.M.- T.rX~ | nXnXnXnXnXnXnXnX",
"nXnXnXnXnXnXnXnX.X<X:X:X*XoX[ M tX).N.v.x.v.M.c.y 2.2.B 0X0Xc.j.k.m.A.b.j.3.B ! b.v.z.x.Z.E.E.# ).3  .[.i nXnXnXnXnXnXnX",
"nXnXnXnXnXnXnX< $X$XOX:X=X*X|.` - x u.W.M.z.c.K # # Q ` I ^ I t V.0XqXV.N M N 2.b.z.k.v.N.E.I.V.Q  .' ' p nXnXnXnXnXnXnX",
"nXnXnXnXnXnXnX0 >   X *X&X-X+XX.t U.)./.W.j.z x T.R.1 OXQ I 1X$ @ X $ $ wXb ( C c.k.b.b.k.F.S.n | ` i < X X nXnXnXnXnXnX",
"nXnXnXnXnXnXnXnXnXnX< oX-X-X|.].{ ^ @ P.z d j ).; # 4X,X9X X X: cXcXcXvXxX3 3 2.1.( v.n.v.k.( / ' I i 0 nXnXnXnXnXnXnXnX",
"nXnXnXnXnXnXnXnXnX, <X>X;X-X}.[.[. .^ n dX- f @ c.n.W 8X,X X/ 6.( A ( ~ 9.Q [ ( ( m ! V N V M } 2 nXnXnXnXnXnXnXnXnXnXnX",
"nXnXnXnXnXnXnXnXnXnX4 %X=X.X[.[.}.' < - ; _.@ m.v.m.3.W O.>X3 xXvXb b xXlXlX2 [ M Q _ ` Q ` _ | I : . nXnXnXnXnXnXnXnXnX",
"nXnXnXnXnXnXnXnXnXnX1X;X-X+X}.[.].' o aX- z eXk.v.M.v.c.! 2X4 4.& A e.1 5.7 ^ L 2X X#X4XQ ' | | { ` ` X nXnXnXnXnXnXnXnX",
"nXnXnXnXnXnXnXnX1 4 >X=X-X-X+X[.[.' I ^ ~ ( F.D.z.z.i.m x b xX<.cXv b xX5.gX2 ] v 3X3X>XoXL ] {.2 i { ^ nXnXnXnXnXnXnXnX",
"nXnXnXnXnXnXX w $X<X| XX#X-X*X|.}.].].].{.~ 2.D.C.u.`.Q.I.n p cXcXM Z lXzXzXL { 4 <X>X X} I } {.$ nX: o nXnXnXnXnXnXnXnX",
"nXnXnXnXnXnXnXX   : ] 6X,X-X*X+X}.].].].{.{.Q g.j.i.yXyX~.n / o 4.5 $.7 lX7 T T r 4 3X%X~ } {.| 2 nXnXnXnXnXnXnXnXnXnXnX",
"nXnXnXnXnXnXnXnXnXnX` 9X8X;X.X+X.X[.[.[.[.[.X.U.i.E.u.J B h d cXcX8 D xX5.7 8 s F < 1X1XX.[.[.].' 2 nXnXnXnXnXnXnXnXnXnX",
"nXnXnXnXnXnXnXnXnXnX2X9XXX*X+X+X}.[.[.[.}.[.} t % z - j H *.*.7 F 8 8 #.9 s %.@.@.@.U P [.].].].{.{ ^ . nXnXnXnXnXnXnXnX",
"nXnXnXnXnXnXnXnXnXnX$XO.nX3 &X=XoX].].[.[.{.T G *.H q.q.L.L.=.D 8 9 8 @.@.@.@.@.+.+.U ] [.[.].].} i i : nXnXnXnXnXnXnXnX",
"nXnXnXnXnXnXnXnXnXnX1 nXnX, &X&X*X.X}.[.[.[.P -.K.K.K.K.H -.&.U T T U @.@.@.@.@.@.+.P  .].].} | 2 nXnX$ nXnXnXnXnXnXnXnX",
"nXnXnXnXnXnXnXnXnXnXnXnX+ 2X&X&X&X&XoX{.[.{.U =.K.K.K.H -.-.@.{ {.{.T +.@.@.+.@.@.+.P {.[.[.~ { ^ + nXnXnXnXnXnXnXnXnXnX",
"nXnXnXnXnXnXnXnXnXnXnX+ O < *X*X-X-X*X|. .P $.$.K.L.-.=.&.+.] }.{.].] +.@.@.8 +.+.8 T | [.[.R < o + nXnXnXnXnXnXnXnXnXnX",
"nXnXnXnXnXnXnXnXnXnXnXnXnX, &X|.oX&XoX~ ] s $.$.*.&.$.&.U ] {.[.].].{ +.+.+.F 8 8 U ..{.].]...p nXnXnXnXnXnXnXnXnXnXnXnX",
"nXnXnXnXnXnXnXnXnXnXnXnX, 4X1X^ p *XOXO o 5 F F G F G U T  .[.[.].].].T i 7 q q 7 p } ' [.| ..R nXnXnXnXnXnXnXnXnXnXnXnX",
"nXnXnXnXnXnXnXnXnXnXnX< wX4X~ nX2 $X, nXnXO 5 r q 5 q ] I { [.[.].].].{ I d d e 0 p ] I { | [.{ : nXnXnXnXnXnXnXnXnXnXnX",
"nXnXnXnXnXnXnXnXnXnXnXnXnXnXnXnXnX, nXnXnXnXo a j p ' I nX2 ' ' R ].{ nX: w u u X nX< nXnX< I i <   nXnXnXnXnXnXnXnXnXnX",
"nXnXnXnXnXnXnXnXnXnXnXnXnXnXnXnXnXnXnXnXnXnXo d 0 p { nXnX> ^ < nXI ` nXnXX g o nXnXnXnXnXnXnXnXnXnXnXnXnXnXnXnXnXnXnXnX",
"nXnXnXnXnXnXnXnXnXnXnXnXnXnXnXnXnXnXnXnXnX. h e 0 p ] nXnXnX> nXnXnXi nXnXX F o nXnXnXnXnXnXnXnXnXnXnXnXnXnXnXnXnXnXnXnX",
"nXnXnXnXnXnXnXnXnXnXnXnXnXnXnXnXnXnXnXnXX h h u o nX< nXnXnXnXnXnXnXnXnXnXo y e X . nXnXnXnXnXnXnXnXnXnXnXnXnXnXnXnXnXnX",
"nXnXnXnXnXnXnXnXnXnXnXnXnXnXnXnXnXnXnXq d g d e : nXnXnXnXnXnXnXnXnXnXnX: B :.h d e r q nXnXnXnXnXnXnXnXnXnXnXnXnXnXnXnX",
"nXnXnXnXnXnXnXnXnXnXnXnXnXnXnXnXnXnXe :.:.:.Q e $ nXnXnXnXnXnXnXnXnXnXnX< g :.Y e e e e 0 nXnXnXnXnXnXnXnXnXnXnXnXnXnXnX",
"nXnXnXnXnXnXnXnXnXnXnXnXnXnXnXnXnXq h :.:.%.F = . nXnXnXnXnXnXnXnXnXnXnX& t 1 t 1 M n M 1 nXnXnXnXnXnXnXnXnXnXnXnXnXnXnX",
"nXnXnXnXnXnXnXnXnXnXnXnXnXnXnXnXnXnXv M v v t nXnXnXnXnXnXnXnXnXnXnXnXnXnXnXnXnXnXnXnXnXnXnXnXnXnXnXnXnXnXnXnXnXnXnXnXnX",
"nXnXnXnXnXnXnXnXnXnXnXnXnXnXnXnXnXnXnXnXnXnXnXnXnXnXnXnXnXnXnXnXnXnXnXnXnXnXnXnXnXnXnXnXnXnXnXnXnXnXnXnXnXnXnXnXnXnXnXnX"
};
