/* XPM */
static char *result[] = {
/* columns rows colors chars-per-pixel */
"60 60 16 1 ",
"  c black",
". c #111111",
"X c #303038",
"o c #7A423F",
"O c #4B4345",
"+ c #784040",
"@ c #696252",
"# c #A40C0C",
"$ c #DC0D0D",
"% c #D8A078",
"& c #F4CC43",
"* c #FCEC69",
"= c #0B3C9E",
"- c #1C60E9",
"; c #F8D0B8",
": c None",
/* pixels */
"::::::::::::::::::::::::::::::::::::::::::::::::::::::::::::",
"::::::::::::::::::::::::::::::::::::::::::::::::::::::::::::",
"::::::::::::::::::::::::::::::::::::::::::::::::::::::::::::",
"::::::::::::::::::::::@@@@@@@@@@@@@@@@@:::::::::::::::::::::",
"::::::::::::::::::::::@@@@@@@@@@@@@@@@@:::::::::::::::::::::",
"::::::::::::::::::::::@@@@@@@@@@@@@@@@@:::::::::::::::::::::",
"::::::::::::::::::::@@&&&***********&&&@@:::::::::::::::::::",
"::::::::::::::::::::@@&&&***********&&&@@:::::::::::::::::::",
":::::::::::::::XXXXX&&**********&&*****&&XXXXX::::::::::::::",
":::::::::::::::XXXXX&&**********&&*****&&XXXXX::::::::::::::",
":::::::::::XXXX&&&@@&&*******&&&**&&***&&@@@&&XXXXX:::::::::",
":::::::::::XXXX&&&@@&&*******&&&**&&***&&@@@&&XXXXX:::::::::",
":::::::::::XXXX&&&@@&&*******&&&**&&***&&@@@&&XXXXX:::::::::",
"::::::::XXX&&&&@@@&&&&&&&*******&&**&&&&&&&&@@&&&&&XX:::::::",
"::::::::XXX&&&&@@@&&&&&&&*******&&**&&&&&&&&@@&&&&&XX:::::::",
"::::::  &&&&&&&@@@$$&&&&&&&&&&&&&&&&&&&&&$$$@@&&&&&&&  :::::",
"::::::  &&&&&&&@@@$$&&&&&&&&&&&&&&&&&&&&&$$$@@&&&&&&&  :::::",
"::::::  &&&&&&&OOO$$$$$$$&&&&&&&&&&&$$$$$$$$OO&&&&&&&  :::::",
"::::::  &&&&&&&OOO$$$$$$$&&&&&&&&&&&$$$$$$$$OO&&&&&&&  :::::",
"::::::  &&&&&&&OOO$$$$$$$&&&&&&&&&&&$$$$$$$$OO&&&&&&&  :::::",
"::::::  &&&&&&&&&&OO$$$$$$$$$$$$$$$$$$$$$OOO&&&&&&&&&  :::::",
"::::::  &&&&&&&&&&OO$$$$$$$$$$$$$$$$$$$$$OOO&&&&&&&&&  :::::",
"::::::::   &&&&&&&&&**$$$$$$$$$$$$$$$$$**&&&&&&&&&&  :::::::",
"::::::::   &&&&&&&&&**$$$$$$$$$$$$$$$$$**&&&&&&&&&&  :::::::",
"::::::::+++    &&&****************&&***&&***&&     ++:::::::",
"::::::::+++    &&&****************&&***&&***&&     ++:::::::",
"::::::::+++    &&&****************&&***&&***&&     ++:::::::",
":::::::::::++%%...XX****************&&&**.....%%+++:::::::::",
":::::::::::++%%...XX****************&&&**.....%%+++:::::::::",
":::::::::::::  ooo..........................    ::::::::::::",
":::::::::::::  ooo..........................    ::::::::::::",
":::::::::::::::     .....................     ::::::::::::::",
":::::::::::::::     .....................     ::::::::::::::",
"::::::::::::::::::    .................  XXX::::::::::::::::",
"::::::::::::::::::    .................  XXX::::::::::::::::",
"::::::::::::::::::    .................  XXX::::::::::::::::",
"::::::::::::::::::++%%                 %%   ::::::::::::::::",
"::::::::::::::::::++%%                 %%   ::::::::::::::::",
":::::::::::::::   ;;%%   $$$$$$$$$##   %%;;;  ::::::::::::::",
":::::::::::::::   ;;%%   $$$$$$$$$##   %%;;;  ::::::::::::::",
":::::::::::::++%%%;;%%$$$$$$$$$$#######%%;;;%%++::::::::::::",
":::::::::::::++%%%;;%%$$$$$$$$$$#######%%;;;%%++::::::::::::",
":::::::::::::++%%%;;%%$$$$$$$$$$#######%%;;;%%++::::::::::::",
":::::::::::  ;;%%%@@  $$$$$$$##########  @@@%%;;   :::::::::",
":::::::::::  ;;%%%@@  $$$$$$$##########  @@@%%;;   :::::::::",
":::::::::::  ;;;;;    #################     ;;;;   :::::::::",
":::::::::::  ;;;;;    #################     ;;;;   :::::::::",
":::::::::::::       -----==============--       ::::::::::::",
":::::::::::::       -----==============--       ::::::::::::",
":::::::::::::       -----==============--       ::::::::::::",
"::::::::::::::::::  =====--==============   ::::::::::::::::",
"::::::::::::::::::  =====--==============   ::::::::::::::::",
"::::::::::::::::::  %%%%%           %%%%%   ::::::::::::::::",
"::::::::::::::::::  %%%%%           %%%%%   ::::::::::::::::",
"::::::::::::::::::::     :::::::::::     :::::::::::::::::::",
"::::::::::::::::::::     :::::::::::     :::::::::::::::::::",
"::::::::::::::::::::     :::::::::::     :::::::::::::::::::",
"::::::::::::::::::::::::::::::::::::::::::::::::::::::::::::",
"::::::::::::::::::::::::::::::::::::::::::::::::::::::::::::",
"::::::::::::::::::::::::::::::::::::::::::::::::::::::::::::"
};
