/* XPM */
static char *result[] = {
/* columns rows colors chars-per-pixel */
"60 60 26 1 ",
"  c black",
". c #111111",
"X c #303038",
"o c #4B4345",
"O c #784040",
"+ c #696252",
"@ c #9E1313",
"# c #9B1616",
"$ c #9C1616",
"% c #991A1A",
"& c #A30D0D",
"* c #A20E0E",
"= c #A40C0C",
"- c #A01010",
"; c #A01111",
": c #DC0D0D",
"> c #D28D6B",
", c #D59670",
"< c #D8A078",
"1 c #F4CC43",
"2 c #FCEC69",
"3 c #0B3C9E",
"4 c #EBC2AD",
"5 c #F8D0B8",
"6 c #D8D8E0",
"7 c None",
/* pixels */
"777777777777777777777777777777777777777777777777777777777777",
"777777777777777777777777777777777777777777777777777777777777",
"777777777777777777777777777777777777777777777777777777777777",
"777777777777777777777777777777777777777777777777777777777777",
"7777777777777777777777+++++++++++++++++777777777777777777777",
"7777777777777777777777+++++++++++++++++777777777777777777777",
"77777777777777777777++11122222222222111++7777777777777777777",
"77777777777777777777++11122222222222111++7777777777777777777",
"777777777777777XXXXX112222211222222222211XXXXX77777777777777",
"777777777777777XXXXX112222211222222222211XXXXX77777777777777",
"777777777777777XXXXX112222211222222222211XXXXX77777777777777",
"77777777777XXXX111++112221122111222222211+++11XXXXX777777777",
"77777777777XXXX111++112221122111222222211+++11XXXXX777777777",
"77777777XXX1111+++11111112211222222211111111++11111XX7777777",
"77777777XXX1111+++11111112211222222211111111++11111XX7777777",
"777777  1111111+++::111111111111111111111:::++1111111  77777",
"777777  1111111+++::111111111111111111111:::++1111111  77777",
"777777  1111111+++::111111111111111111111:::++1111111  77777",
"777777  1111111ooo:::::::11111111111::::::::oo1111111  77777",
"777777  1111111ooo:::::::11111111111::::::::oo1111111  77777",
"777777  1111111111oo:::::::::::::::::::::ooo111111111  77777",
"777777  1111111111oo:::::::::::::::::::::ooo111111111  77777",
"77777777   11111111122:::::::::::::::::221111111111  7777777",
"77777777   11111111122:::::::::::::::::221111111111  7777777",
"77777777   11111111122:::::::::::::::::221111111111  7777777",
"77777777777    1112211222112222222222222222211     777777777",
"77777777777    1112211222112222222222222222211     777777777",
"777777777777777.....221112222222222222222XXX..77777777777777",
"777777777777777.....221112222222222222222XXX..77777777777777",
"777777777777777   ............................77777777777777",
"777777777777777   ............................77777777777777",
"777777777777777   ............................77777777777777",
"7777777777777777OO<<  666<<<<...<<<<........  77777777777777",
"7777777777777777OO<<  666<<<<...<<<<........  77777777777777",
"7777777777777777O<555555555<<<<<<<<<.....   7777777777777777",
"7777777777777777O<555555555<<<<<<<<<.....   7777777777777777",
"777777777777777777OO55555<<<<<<<<<..     7777777777777777777",
"777777777777777777OO55555<<<<<<<<<..     7777777777777777777",
"777777777777777777OO45555,><<<<<<<..     7777777777777777777",
"777777777777777777OOOO@-;$%<<=======ooo777777777777777777777",
"7777777777777777777777&==*#<<=======ooo777777777777777777777",
"7777777777777777777777=====     ====   777777777777777777777",
"7777777777777777777777=====     ====   777777777777777777777",
"7777777777777777777777=====     ====   777777777777777777777",
"77777777777777777777::===  55555  =====777777777777777777777",
"77777777777777777777::===  55555  =====777777777777777777777",
"77777777777777777777::===  55555  =====777777777777777777777",
"77777777777777777777::===  55555  =====777777777777777777777",
"7777777777777777777733   <<<<<<<  33333777777777777777777777",
"7777777777777777777733   <<<<<<<  33333777777777777777777777",
"7777777777777777777733   <<<<<<<  33333777777777777777777777",
"77777777777777777777  XXX<<<<OOO3333   777777777777777777777",
"77777777777777777777  XXX<<<<OOO3333   777777777777777777777",
"7777777777777777777777   3333<<<<<  777777777777777777777777",
"7777777777777777777777   3333<<<<<  777777777777777777777777",
"7777777777777777777777777         77777777777777777777777777",
"7777777777777777777777777         77777777777777777777777777",
"7777777777777777777777777         77777777777777777777777777",
"777777777777777777777777777777777777777777777777777777777777",
"777777777777777777777777777777777777777777777777777777777777"
};
