/* XPM */
static char *result[] = {
/* columns rows colors chars-per-pixel */
"60 60 21 1 ",
"  c black",
". c #111111",
"X c #303038",
"o c #4B4345",
"O c #784040",
"+ c #696252",
"@ c #A40C0C",
"# c #DC0D0D",
"$ c #D8A078",
"% c #F4CC43",
"& c #F4CD44",
"* c #F5CD44",
"= c #F5CE45",
"- c #F5CE46",
"; c #FBE966",
": c #FBEB68",
"> c #FCEC69",
", c #0B3C9E",
"< c #F8D0B8",
"1 c #D8D8E0",
"2 c None",
/* pixels */
"222222222222222222222222222222222222222222222222222222222222",
"222222222222222222222222222222222222222222222222222222222222",
"222222222222222222222222222222222222222222222222222222222222",
"222222222222222222222222222222222222222222222222222222222222",
"2222222222222222222222+++++++++++++++22222222222222222222222",
"2222222222222222222222+++++++++++++++22222222222222222222222",
"2222222222222222222222+++++++++++++++22222222222222222222222",
"22222222222222222222++%%>>>>>>>>>>>%%++222222222222222222222",
"22222222222222222222++%%>>>>>>>>>>>%%++222222222222222222222",
"222222222222222XXXXX%%>>>>>>>>*=>>>>>%%XXXXX2222222222222222",
"222222222222222XXXXX%%>>>>>>>>=*>>>>>%%XXXXX2222222222222222",
"222222222222222XXXXX%%>>>>>&%=::**>>>%%XXXXX2222222222222222",
"2222222222XXXXX%%+++%%>>>>>%%%>>%&:>>%%+++%%XXXXX22222222222",
"2222222222XXXXX%%+++%%>>>>>-%%>>%%;>>%%+++%%XXXXX22222222222",
"22222222XX%%%%%++%%%%%%%>>>>>>%%>>>%%%%%%%++%%%%%XX222222222",
"22222222XX%%%%%++%%%%%%%>>>>>>%%>>>%%%%%%%++%%%%%XX222222222",
"222222  %%%%%%%++###%%%%%%%%%%%%%%%%%%%###++%%%%%%%  2222222",
"222222  %%%%%%%++###%%%%%%%%%%%%%%%%%%%###++%%%%%%%  2222222",
"222222  %%%%%%%oo#######%%%%%%%%%%%#######oo%%%%%%%  2222222",
"222222  %%%%%%%oo#######%%%%%%%%%%%#######oo%%%%%%%  2222222",
"222222  %%%%%%%oo#######%%%%%%%%%%%#######oo%%%%%%%  2222222",
"222222  %%%%%%%%%ooo###################ooo%%%%%%%%%  2222222",
"222222  %%%%%%%%%ooo###################ooo%%%%%%%%%  2222222",
"22222222  %%%%%%%%%%>>###############>>%%%%%%%%%%  222222222",
"22222222  %%%%%%%%%%>>###############>>%%%%%%%%%%  222222222",
"2222222222     %%>>>>>>>>>>>>>>>%%%>>%%>>>%%     22222222222",
"2222222222     %%>>>>>>>>>>>>>>>%%%>>%%>>>%%     22222222222",
"2222222222     %%>>>>>>>>>>>>>>>%%%>>%%>>>%%     22222222222",
"222222222222222..XXX>>>>>>>>>>>>>>>%%>>.....2222222222222222",
"222222222222222..XXX>>>>>>>>>>>>>>>%%>>.....2222222222222222",
"222222222222222...........................  2222222222222222",
"222222222222222  .......$$$$$.$$$$$11  $$$OO2222222222222222",
"222222222222222  .......$$$$$.$$$$$11  $$$OO2222222222222222",
"222222222222222  .......$$$$$.$$$$$11  $$$OO2222222222222222",
"22222222222222222   ....$$$$$$$$<<<<<<<<<<$$2222222222222222",
"22222222222222222   ....$$$$$$$$<<<<<<<<<<$$2222222222222222",
"22222222222222222222    ...$$$$$$$$<<<<OOO222222222222222222",
"22222222222222222222    ...$$$$$$$$<<<<OOO222222222222222222",
"2222222222222222222222oo@@@@@@$$OOOOOOO222222222222222222222",
"2222222222222222222222oo@@@@@@$$OOOOOOO222222222222222222222",
"2222222222222222222222oo@@@@@@$$OOOOOOO222222222222222222222",
"2222222222222222222222  @@@@@   @@@@@22222222222222222222222",
"2222222222222222222222  @@@@@   @@@@@22222222222222222222222",
"2222222222222222222222@@@@@  <<<   @@##222222222222222222222",
"2222222222222222222222@@@@@  <<<   @@##222222222222222222222",
"2222222222222222222222@@@@@  <<<   @@##222222222222222222222",
"2222222222222222222222@@@@@  <<<   @@##222222222222222222222",
"2222222222222222222222,,,,,  $$$$$$  ,,222222222222222222222",
"2222222222222222222222,,,,,  $$$$$$  ,,222222222222222222222",
"2222222222222222222222,,,,,  $$$$$$  ,,222222222222222222222",
"2222222222222222222222  ,,,,,O$$$$$XX  222222222222222222222",
"2222222222222222222222  ,,,,,O$$$$$XX  222222222222222222222",
"222222222222222222222222   $$$,,,,,  22222222222222222222222",
"222222222222222222222222   $$$,,,,,  22222222222222222222222",
"222222222222222222222222222        2222222222222222222222222",
"222222222222222222222222222        2222222222222222222222222",
"222222222222222222222222222        2222222222222222222222222",
"222222222222222222222222222222222222222222222222222222222222",
"222222222222222222222222222222222222222222222222222222222222",
"222222222222222222222222222222222222222222222222222222222222"
};
