/* XPM */
static char *result[] = {
/* columns rows colors chars-per-pixel */
"60 60 136 2 ",
"   c #0676B7",
".  c #0972B5",
"X  c #0B79B3",
"o  c #0377BD",
"O  c #0976BA",
"+  c #0278BD",
"@  c #0477C0",
"#  c #0877C6",
"$  c #037BC2",
"%  c #0A7EC4",
"&  c #047EC9",
"*  c #1583BE",
"=  c #0481C5",
"-  c #0C81C5",
";  c #078AC7",
":  c #0C88C7",
">  c #0485CC",
",  c #0B86CC",
"<  c #0389CE",
"1  c #0A8ACC",
"2  c #1282C3",
"3  c #1A82C2",
"4  c #1388C6",
"5  c #1A8AC7",
"6  c #1185C8",
"7  c #1A81C9",
"8  c #128BCE",
"9  c #1F8FCB",
"0  c #1390CF",
"q  c #1F90CB",
"w  c #0487D2",
"e  c #0389D2",
"r  c #0C8CD4",
"t  c #078FD8",
"y  c #118DD2",
"u  c #0D93D4",
"i  c #0C94DA",
"p  c #0F9ADC",
"a  c #1292D4",
"s  c #1D97D7",
"d  c #1495D8",
"f  c #1B96D9",
"g  c #129ADD",
"h  c #1C9BDC",
"j  c #258FC7",
"k  c #238ECB",
"l  c #2291C3",
"z  c #2190CB",
"x  c #2992C9",
"c  c #329ACE",
"v  c #2E95D0",
"b  c #229CD6",
"n  c #2F9BD3",
"m  c #229DD9",
"M  c #349BD2",
"N  c #389BD4",
"B  c #2CA1DA",
"V  c #33A5DC",
"C  c #3BA6DD",
"Z  c #32A8DF",
"A  c #3CA9DC",
"S  c #1197E0",
"D  c #169EE4",
"F  c #1C9FE2",
"G  c #17A0E4",
"H  c #1CA4E5",
"J  c #1FA8E7",
"K  c #1BA5E9",
"L  c #1EABED",
"P  c #20A6E6",
"I  c #20A5EA",
"U  c #21ABEE",
"Y  c #2BACEB",
"T  c #38A6E0",
"R  c #25B1EF",
"E  c #2AB6EF",
"W  c #30B2EF",
"Q  c #23ACF1",
"!  c #28AFF1",
"~  c #26B3F3",
"^  c #2AB6F5",
"/  c #26B8F6",
"(  c #2AB8F6",
")  c #27B5F8",
"_  c #2AB5F9",
"`  c #29B8F9",
"'  c #33B6F6",
"]  c #34B9F3",
"[  c #3ABAF5",
"{  c #38BAF8",
"}  c #42A6DB",
"|  c #52B5DF",
" . c #42AEE5",
".. c #42AFE9",
"X. c #41B0E6",
"o. c #4CB5E5",
"O. c #45B4EB",
"+. c #42BFEE",
"@. c #4FBBEB",
"#. c #52B4E3",
"$. c #52B8E7",
"%. c #59BCE7",
"&. c #5AB7E8",
"*. c #53BAEA",
"=. c #5EBEEB",
"-. c #42BEF5",
";. c #50BEF2",
":. c #61BFEC",
">. c #3CC1F4",
",. c #5CC2ED",
"<. c #4AC2F6",
"1. c #48C1F8",
"2. c #50C3F3",
"3. c #5EC4F1",
"4. c #52C8F8",
"5. c #61C1ED",
"6. c #6AC4EE",
"7. c #63C4F1",
"8. c #62C9F7",
"9. c #6DCDF5",
"0. c #61CCF9",
"q. c #6CCEF9",
"w. c #73CDF5",
"e. c #74CEF9",
"r. c #79CEF9",
"t. c #66D1F9",
"y. c #69D0FA",
"u. c #73D0F7",
"i. c #7BD3F7",
"p. c #74D2FA",
"a. c #7ED6FC",
"s. c #77D8FB",
"d. c #7DD9FD",
"f. c #81D7F6",
"g. c #81D6FC",
"h. c #80D8FB",
/* pixels */
"g.> _ e e e e e e e w a.e e w w e e < e e < 3.g.g.^ e e e e e e e w e ) o o o o o o < g.a.g.g.g.O o > e e e e w e e w g.",
"g.g.e e e e e e e e e g.a.w w w e _ _ ^ _ < 3.3 ^ > e e < e e e e w e o ^ y o o < e a.g.o o   > a.; t w e e w w e e h.d.",
"w h.g.e e e w e e a.a.g.g.a.a.a.h.< < < $ ^ q.i.^ _ _ _ @ e e e e e e o + F ^ ^ a.g.> e e & > e w g.e e e e e e e h.  o ",
"_ ^ a.g.e w e e a.a.; e w $ @ ~ o d.$ + o + o w.g.  o + ) e e e w e e e < e w p.w _ e e e e w w e g.e w e e e p.g.  o / ",
"+ e _ _ g.e 1 9.g.w ) _ < + o R + + g.o o $ $ w.g.a.a.$ ^ < e w a., e e e e ,.a e e ` e e e w w e e f.< w *.g.2 o o ^ + ",
"+ @ , e h.g.a.d e w e < ` ^ _ % + + o g.  o :.a.  o o a.a.g.a.a.> a.a.e e e ,.u e e _ e e e e e e e w g.h.M o $ o o ^ + ",
"o o o o + g.^ r e e w w o o o o o + o o g.g.g.* @ o o o ^ e w w e e e a.; *.<.^ ` ^ e e e e e e e e e a.g.M o + o + ^ + ",
"o o o + + g.p.W e e e $ o o o o o o o o g.g.c $ o o o o ^ e e e e e e d r.<.y % = % e e e e e e e e e g.g.N o + o + ^ + ",
"o o + o @ ; h.a _ e w + o o o o o o o + O h.j o o o o o o ^ ^ _ < / ^ _ g.n o o o o + e e w w w e e e a.i.N J ^ ^ ^ o + ",
"o o o o + w g.g.e ` < + o o + o o o o + ^ g.[ % $ + + o _ < e < ) < $ o h.c + + o + o o @ > w w e e e g.d.4.1   o o o o ",
"o o o o + < g.g.e ` e + o o o o ~ ( ^ ^ $ g.g.] o + o o ~ $ > e e ` ( + g.<.~ ^ ) + o o o o > w e e d.g.T e $ o o o o o ",
"o + o o o w g.a.r ` < e o o o R + + o o o o =.[ + + o o ~ o > e e e e ( h.M + + + ^ + $ + o > w e w d.< e e e $ o o o o ",
"o o o o + w g.g.< ( e < ) ^ ) $ o o o o o + =.2 ^ ^ o ^ + + + e e e e e h.M + + + o ^ o + o ; w e h.a.g...e w e o o o o ",
"o o o + + + f.a ^ _ ) ) o + o o + e e + + + =.2   o ^ @ + + o + e e e e h.f.z +   + ^ o o o o w.h.d., s.a.a.m e + + o o ",
"+ o o o + ^ a.] e < < e + o o o w e e $ @ g.g.6 @ $ o ^ + + o o e < w w g.M 5.h.d.g.g.g.h.h.g.d.< e t w w @.b ~ ^ o + + ",
"o o o o R % g.4 e e e e < o o < e e e < o g.n ; w w + % ~ + o + e e e w h.M O - * - 2 ] - &.v 1 w e e e w u ,.a e ) ~ ! ",
"a.a.a.a.' g.g.2 @ o w e e e e w w w e e > g.d.a.< w < > ) + + + o a.a.a.> % o + o o o ^ $ $.z < e e e e D ) y.a p.a.a.a.",
"o   ^ o g.g.g.2 o o r e w w e e e e e e g.g.b e a.< < e < ^ 1 w.g.> < e a.a.g.- + o o + ' 3.z < e e e < D g < p.g.. o   ",
"o o o ^ O + g.g.s.> e e w w w e w w i.g.< < w e w h.w w < d.a.a w e e e e $ + w.O o   g.g.1.1 o e e w _ D e e u.  @ o o ",
"o o o o ^ $ +   s.g.g.g.g.g.a.g.g.g.o o o o < w < h.h.g.g.w U e e e e e o o + w.g.a.g.o   H , o w e w _ G e e y., e + @ ",
"o o o o ) + $ < e e a.r e e e e w w + + o o o o w e a.a.e e L t e e < o o + + r.g.o o + + H ,   + e e _ G e e e a.> e e ",
"e + o o + / e < e e e a.e e w e w $ o o + o o o +   o g.+ < L t e e < e e e $ w.  o o + o F , o o + < _ G e e e a.e w e ",
"e o o o > t Q e e e e m 7.e $ $ $ + o o o o o + + o o a.o * J t e e e e L L t u.o o o + J d $ o o > < i G i w e a.e w w ",
"e < o e e e t U ~ ) w $ a.$ @ + o o + o o o o o o o + a.+ R i < e ~ ~ ~ e t L d 9.o o ! t < $ o o e e e e K i 7.a w e w ",
"e e e e w e e e e ` ^ +   s.@ o o o o o o o o o o + + g.^ + J ^ ^ e e e e e L e $ a.a.e e e w w w e w e e e K p.< e e e ",
"e e e e _ ` ^ ` / < ^ + + d.o o o o o o + o o   o o d.X + o + + + + e e e e e ) _ ^ < g.e e w e e e e e w e L a.e w e w ",
"e w e a.a.a.a.a.e w e ` o g.o o o o o o o o ,.h.h.d.h.o o o + o + w e e e e e e e _ e > a.Z e e e e w w e e L a.g.; + e ",
"e w a.g.^ + + > a.a.< _ g.o o o + o o o + g.h.3 ~ + g.o o o o o o w e e e w w e e e _ < d.B > e e e e e e e ,.a.a.  $ + ",
"w g.f.) ^ o @ e w e a.g.g.o o o o o o o d.a.z U o o   g.o o o o o w w e w w e e e e e ) > *.m e e e i.i.T *.d.a e a.a.+ ",
"g.g.  / o o @ < w w e e g.+ o o o o + + h.+ o ) + o + a.o o   o o > e e e w e e e e e _ f.V 3.d.g.h., ) 4.A e e e @ @ a.",
"h.k o ~ o o < w e e e e g.5.o + + + o =.g.+ h 1 + o o z =.:.5 $ o & e e w e e e $ e e i a.V f m m m L i g O.f e $ @ + k ",
"2 + o ^ o o e e e e e < d g.w.y < w.w.g.2 ~ 1 + o o o o 2 % %.w.o < e e w e e $ o e e p.] D w e e e ` < < u *.d + o + u.",
"o o + + ^ o o < w e w e e < g.g.p.a.^ ( ^ @ H % o o o o o o o   a.a.e w < $.a.f.a.a.w h.^ S e e e < ` e e e 3.4 $ o o a.",
"o o + o ^ o o o o o + e e e > w a.; < < o o J % o o o o o o o $ a.  a.a.d.Z < + o   g.E + + o < e e e ) D e ,.0 + o + g.",
"o o + ( $ o o o o o o o e w , w.1 e e < o o J % o o o o o o o w.a.o w w e e $ R ^ ) a.E ^ y o $ + < e _ G e ,.u e o + a.",
"a.O o ^ o o o o o o o w e w < e.g.< e e , @ J % o o o o w i.g.d < w e e e e L % o o a.+   H ^ = o o < ^ D e 3.a e e $ + ",
"f.g.` o o o + o o o e e e e e e a.a.g.w e ^ : + o @ e < h.e e e e e e e e w L = o o h.+ @ o o ~ + @ ) < e e ,.a w w w + ",
"i.g.0.  o o o o o o w e e e w e a.V Z &.e ^ : + o > < *.T w w e e e e e e e L % + $ N | o $ + 1 h o ^ & < e ,.d e e w @ ",
"k -.k :.o o o o o o e e e e e e a.$ > g.3.i H < > e 3.g.w w e e e e e e e e , G @ o o l :.x + o ^ o , I y T T e w e e 5.",
"o ( + 2 w.+ o o o o e e e e w q.2 + e d g.9.m Q ~ Q a.g.t e e e e e @ @ $ @ + ) o o o o i.r.r.r.% $ e.p.i.2.i e e w y.- ",
"( + ~ ) g.) ^ ^ ) ^ ` ` e e e w.o + < < ] h.a.i.a.a.1 g.e w e e $ o o @ o o o R @ o + + h.N o Y a.a.a.w , e L ) ~ s.  + ",
"+ + + o a.  o @ o o o o ` w g.a.O + < ` < w w e > < ) , d.w e ~ ) o o o o o o ~ o o + + a.M + R o g.a.w e e e w < d.  ^ ",
"o o o @   a.g.2 o o o o + f.a.] + / ^ < e e e e e $ _ w g.e U t < ) + + o o P % o o o h.a.c o + ^   g.a.d.a.a.h.d.  ( + ",
"o o o o o @ g.g.a.a.g.g.g.h.g.% ^ + o + + + + + + o o _ _ g.h w e < ^ o + + P % o o g.i.o o + + o _ a.e e e e e d./ + + ",
"o o o w e e e e e e e w w e g.2 o ( o o o o o o o o o < < d.b e e e < ) ^ ^ , + o a.o o   o o + o < a.e t e e e a.R o o ",
"o > > e e e e e w e w e e e a.4 + ^ o o o + o o o o o e e d.3.r e e e ^ y y  .#.#.M o o o o & = > e g.e w e e e a.8.o o ",
"w e e e e e e e e e e e e < d.2 + ( o o o o o o o o o e w h.T *.3.7.,.q.:.:.i.g.j + o o > > e e e Q i.e w e e w m g.:.o ",
"w e e e e w e e e w e e w w.7 6.9.% U + o o o o o o o $ < d.m d y a a { d a 7.f < o o w e e e e Q a.d e e e e e e { a 9.",
"e w e w + e w e e e $ + a.  + o o g.o ^ o + + + s.a.a.a.a.e e e e w e ) e e ,.d e w e e e w L ) e d.< w = + > e e < _ d.",
"e e e o + e w e e e o g.o o + o o o h._ + O :.h.  o o   > e w e e w e ^ < e ,.a e w e w e K i e w h.< + o o o o w w < a.",
"a.g.g.a.o $ e e e w d.+ o + + o o h.O a.g.g.k o o o o o w e e e e e e ( ( g < u.1 e e w e K i e a.  + o o @ o o o < w g.",
"o ~ o + g.a.a.a.g.g.< e e + + + o g.+ ' + o o + + o o + e w e w e e < ) + F i w a.a.g.g.d.g.a.g.+ + o o o @ o o + + + g.",
"+ ^ o + } } } }  ...< D D $ o o + } A ( o o + o o o o + e e e e e t e _ + 8 F e a. . ...X.;.O.i.} } o o o o o o o o A } ",
"o ^ F   #.#.#.#.*.< K p g h + $ + | C g F o o o o o o = e e e G G G G d o o 8 G a.% e e e G r n M N | #.#.o.#.#.#.#.N o ",
"+ , : ,.s -.-.b b 7.q.U U ^ :.:.:.a.,.3.y.=.,.,.  + o 3.3.3.3.q.p i 1 o o o + : g.5.3.Q U d $ o + + k k 9 9 k w.j k o o ",
"o o u.u < t e Q Q ] a.s.t u.h.[ ] ] a u 0 ] h w.w.w.w.a y d a a q.w.  o o o @ 7.h.X g.p.= + o o + + + + o o o w.o o o + ",
"a.a.w w e e e < ) < w d.a.g.< e < < e e e ) i < < g.> e e e e e < 1 a.a.i.a.a.i.X @ o g.g.M o o o o o o o o + o a.> a.a.",
", w w w w e e e ) < w d.< > < w e e e e e e L t e h._ _ e e Q ) ` ( e o o o o o @ o o o a.c o o + o o o @ o o > > d.g.< ",
"e e e ( ` ` < e ( < w g.w e e e e e e e e < e Q e h.< e ) ) i < < < ) o o o o o o o o o d.c @ o o o o + = e e e < g.a.< ",
"e e _ e < < ) ^ _ e e g.w e e e e e e e e e e e a.h.w < < e < < e < > ) o + o o o o o o a.a.k o o o o e w w e e < e a.< "
};
