/* XPM */
static char *result[] = {
/* columns rows colors chars-per-pixel */
"52 71 7 1 ",
"  c #754C60",
". c #90625D",
"X c #AA7959",
"o c #C49A6C",
"O c #DCB98A",
"+ c #E8CFA6",
"@ c None",
/* pixels */
"   @@@@@@@@@@@@@@@@@@@@@@@@@@@@@@@@@@@@@@@@@@@@     ",
"   @@@@@@@@@@@@@@@@@@@@@@@@@@@@@@@@@@@@@@@@@@@@     ",
"   @@@@@@@@@@@@@@@@@@@@@@@@@@@@@@@@@@@@@@@@@@@@     ",
"   @@@@@@@@@@@@@@@@@@@@@@@@@@@@@@@@@@@@@@@@@@@@     ",
"ooo      @@@@@@@@@@@@@@@@@@@@@@@@@@@@@@@@@@@   ooooo",
"ooo      @@@@@@@@@@@@@@@@@@@@@@@@@@@@@@@@@@@   ooooo",
"ooo      @@@@@@@@@@@@@@@@@@@@@@@@@@@@@@@@@@@   ooooo",
"ooo      @@@@@@@@@@@@@@@@@@@@@@@@@@@@@@@@@@@   ooooo",
"ooo      @@@@@@@@@@@@@@@@@@@@@@@@@@@@@@@@@@@   ooooo",
"ooo      @@@                             @@@   ooooo",
"ooo      @@@                             @@@   ooooo",
"ooo      @@@                             @@@   ooooo",
"ooo      @@@                             @@@   ooooo",
"ooo         ooooooooooooooooooooooooooooo      ooooo",
"ooo         ooooooooooooooooooooooooooooo      ooooo",
"ooo         ooooooooooooooooooooooooooooo      ooooo",
"ooo         ooooooooooooooooooooooooooooo      ooooo",
"ooo         ooooooooooooooooooooooooooooo      ooooo",
"OOO      ooo.............................ooo   OOOOO",
"OOO      ooo.............................ooo   OOOOO",
"OOO      ooo.............................ooo   OOOOO",
"OOO      ooo.............................ooo   OOOOO",
"XXX      ...................................   XXXXX",
"XXX      ...................................   XXXXX",
"XXX      ...................................   XXXXX",
"XXX      ...................................   XXXXX",
"XXX      ...................................   XXXXX",
"XXX      ......XXX.................XXX......   XXXXX",
"XXX      ......XXX.................XXX......   XXXXX",
"XXX      ......XXX.................XXX......   XXXXX",
"XXX      ......XXX.................XXX......   XXXXX",
"...      ......XXX.................XXX......   .....",
"...      ......XXX.................XXX......   .....",
"...      ......XXX.................XXX......   .....",
"...      ......XXX.................XXX......   .....",
"XXX      ......XXX.................XXX......   XXXXX",
"XXX      ......XXX.................XXX......   XXXXX",
"XXX      ......XXX.................XXX......   XXXXX",
"XXX      ......XXX.................XXX......   XXXXX",
"XXX      ......XXX.................XXX......   XXXXX",
"XXX      ......XXX.................XXX......   XXXXX",
"XXX      ......XXX.................XXX......   XXXXX",
"XXX      ......XXX.................XXX......   XXXXX",
"XXX      ......XXX.................XXX......   XXXXX",
"XXX      ......XXX.................++++++...   XXXXX",
"XXX      ......XXX.................++++++...   XXXXX",
"XXX      ......XXX.................++++++...   XXXXX",
"XXX      ......XXX.................++++++...   XXXXX",
"XXX      ......XXX.................++++++...   XXXXX",
"...      ......XXX.................XXX......   .....",
"...      ......XXX.................XXX......   .....",
"...      ......XXX.................XXX......   .....",
"...      ......XXX.................XXX......   .....",
"XXX      ......XXX.................XXX......   XXXXX",
"XXX      ......XXX.................XXX......   XXXXX",
"XXX      ......XXX.................XXX......   XXXXX",
"XXX      ......XXX.................XXX......   XXXXX",
"XXX      ......XXX.................XXX......   XXXXX",
"XXX      ......XXX.................XXX......   XXXXX",
"XXX      ......XXX.................XXX......   XXXXX",
"XXX      ......XXX.................XXX......   XXXXX",
"XXX      ......XXX.................XXX......   XXXXX",
"XXX      ...................................   XXXXX",
"XXX      ...................................   XXXXX",
"XXX      ...................................   XXXXX",
"XXX      ...................................   XXXXX",
"XXX      ...................................   XXXXX",
"                                                    ",
"                                                    ",
"                                                    ",
"                                                    "
};
