/* XPM */
static char *result[] = {
/* columns rows colors chars-per-pixel */
"60 60 82 1 ",
"  c black",
". c #010101",
"X c #020201",
"o c #010102",
"O c #020202",
"+ c #030302",
"@ c gray1",
"# c #040403",
"$ c #030304",
"% c #040404",
"& c #050404",
"* c #040405",
"= c gray2",
"- c #060505",
"; c #060605",
": c #070705",
"> c #070606",
", c #070706",
"< c #060607",
"1 c #090807",
"2 c #070708",
"3 c #080708",
"4 c #080809",
"5 c #0A0909",
"6 c #0B0A08",
"7 c #0B0A09",
"8 c #08080A",
"9 c #09090B",
"0 c #090A0A",
"q c #0D0C0A",
"w c #0E0D0B",
"e c #0A0A0C",
"r c #0E0C0C",
"t c #0E0C0D",
"y c #0F0E0C",
"u c #0C0C0E",
"i c #0D0D0F",
"p c #0F0D0E",
"a c #100F0C",
"s c #100F0D",
"d c #100F0F",
"f c #12110E",
"g c #13120F",
"h c #151310",
"j c #171512",
"k c #171612",
"l c #121215",
"z c #171415",
"x c #171515",
"c c #141417",
"v c #1A1814",
"b c #1B1915",
"n c #1C1A16",
"m c #1E1C17",
"M c #1B1819",
"N c #18181B",
"B c #211D1E",
"V c #24221C",
"C c #1D1D22",
"Z c #1E1E23",
"A c #2A2821",
"S c #2E2B24",
"D c #2C2728",
"F c #302D26",
"G c #322D2E",
"H c #3C382F",
"J c #2E2E35",
"K c #303038",
"L c #7A423F",
"P c #784040",
"I c #696252",
"U c #DC0D0D",
"Y c #CA1010",
"T c #D98756",
"R c #D8A078",
"E c #F4CC43",
"W c #FCEC69",
"Q c #0B3C9E",
"! c #1C60E9",
"~ c #F8D0B8",
"^ c #D8D8E0",
"/ c None",
/* pixels */
"////////////////////////////////////////////////////////////",
"////////////////////////////////////////////////////////////",
"////////////////////////////////////////////////////////////",
"////////////////////////////////////////////////////////////",
"////////////////////////////////////////////////////////////",
"//////////////////////fO,66qwwas711@O6//////////////////////",
"//////////////////////g:;##O.      +,g//////////////////////",
"////////////////////FhEEWWWWWWWWWWWWEEII////////////////////",
"////////////////////jkEEWWWWWWWWWWWWEEII////////////////////",
"///////////////KKKKKEEWWWWWWWWWEEWWWWWEEKKKKK///////////////",
"///////////////KKKKKEEWWWWWWWWWEEWWWWWEEJJKKK///////////////",
"///////////////KKKKKEEWWWWWWWWWEEWWWWWEEJJKKK///////////////",
"//////////ee  lEEm11EEWWWWWWWEEWWEEEWWEE&&;EEKKKKK//////////",
"//////////==o iEEnXXEEWWWWWWWEEWWEEEWWEE   EEKKKKK//////////",
"//////// *EEEEEy EEEEEEEWWWWWWWEEWWWEEEEEEEHSEEEEE49////////",
"////////.$EEEEE yEEEEEEEWWWWWWWEEWWWEEEEEEEAqEEEEENc////////",
"//////  EEEEEEE XUUUEEEEEEEEEEEEEEEEEEEEUUUVfEEEEEEE  //////",
"//////  EEEEEEE  UUUEEEEEEEEEEEEEEEEEEEEUUUvbEEEEEEE  //////",
"//////  EEEEEEE- UUUUUUUEEEEEEEEEEEEUUUUUUUpxEEEEEEE  //////",
"//////  EEEEEEE- UUUUUUUEEEEEEEEEEEEUUUUUUUpxEEEEEEE  //////",
"//////  EEEEEEE5 UUUUUUUEEEEEEEEEEEEUUUUUUUMGEEEEEEE  //////",
"//////  EEEEEEEEEdDDUUUUUUUUUUUUUUUUUUUU  >EEEEEEEEE  //////",
"//////  EEEEEEEEEzBBUUUUUUUUUUUUUUUUUUUUrr EEEEEEEEE  //////",
"////////  EEEEEEEEEEWWUUUUUUUUUUUUUUUUWWEEEEEEEEEE  ////////",
"////////  EEEEEEEEEEWWUUUUUUUUUUUUUUUUWWEEEEEEEEEE  ////////",
"////////PP     EEWWWWWWWWWWWWWWWWEEEWWEEWWWEE     PP////////",
"////////PP     EEWWWWWWWWWWWWWWWWEEEWWEEWWWEE     PP////////",
"////////PP     EEWWWWWWWWWWWWWWWWEEEWWEEWWWEE     PP////////",
"//////////PPPRRLLZCCWWWWWWWWWWWWWWWWEEWWuueLLRRPPP//////////",
"//////////PPPRRLL8  WWWWWWWWWWWWWWWWEEWW<< LLRRPPP//////////",
"/////////////  LLRRR%O                 .RRRLL  /////////////",
"/////////////  LLRRRo 203tt4$           RRRLL  /////////////",
"///////////////  RRR~~^^   RRRRRR   ^^~~RRR  ///////////////",
"///////////////  RRR~~^^   RRRRRR   ^^~~RRR  ///////////////",
"///////////////  RRR~~^^   RRRRRR   ^^~~RRR  ///////////////",
"/////////////////PPP~~~~~~~~~~~~~~~~~~~~PPP/////////////////",
"/////////////////PPP~~~~~~~~~~~~~~~~~~~~PPP/////////////////",
"/////////////////   PPRR~~~~~RR~~~~~RRPP   /////////////////",
"/////////////////   PPRR~~~~~RR~~~~~RRPP   /////////////////",
"///////////////  ~~~RR  PPPRRRRRRPPP  RR~~~  ///////////////",
"///////////////  ~~~RR  PPPRRRRRRPPP  RR~~~  ///////////////",
"///////////////  ~~~RR  PPPRRRRRRPPP  RR~~~  ///////////////",
"/////////////PP~~~~~RRYYYYYTT~~TTYYYYYRR~~~~~PP/////////////",
"/////////////PP~~~~~RRYYYYYTT~~TTYYYYYRR~~~~~PP/////////////",
"//////////   ~~RRIII  YYYYY~~TT~~YYYYY  IIIRR~~   //////////",
"//////////   ~~RRIII  YYYYY~~TT~~YYYYY  IIIRR~~   //////////",
"//////////   ~~~~     YY~~~TT~~TT~~~YY     ~~~~   //////////",
"//////////   ~~~~     YY~~~TT~~TT~~~YY     ~~~~   //////////",
"/////////////       QQQQ!!!~~~~~~!!!QQQQ       /////////////",
"/////////////       QQQQ!!!~~~~~~!!!QQQQ       /////////////",
"/////////////       QQQQ!!!~~~~~~!!!QQQQ       /////////////",
"/////////////////   RRPPQQQ!!!!!!QQQPPRR   /////////////////",
"/////////////////   RRPPQQQ!!!!!!QQQPPRR   /////////////////",
"/////////////////   IIRR   //////   RRII   /////////////////",
"/////////////////   IIRR   //////   RRII   /////////////////",
"////////////////////    ////////////    ////////////////////",
"////////////////////    ////////////    ////////////////////",
"////////////////////    ////////////    ////////////////////",
"////////////////////////////////////////////////////////////",
"////////////////////////////////////////////////////////////"
};
