/* XPM */
static char *result[] = {
/* columns rows colors chars-per-pixel */
"52 71 7 1 ",
"  c #754C60",
". c #90625D",
"X c #AA7959",
"o c #C49A6C",
"O c #DCB98A",
"+ c #E8CFA6",
"@ c None",
/* pixels */
"   @@@@@@@@@@@@@@@@@@@        @@@@@@@@@@@@@@@@@@@   ",
"   @@@@@@@@@@@@@@@@@@@        @@@@@@@@@@@@@@@@@@@   ",
"   @@@@@@@@@@@@@@@@@@@        @@@@@@@@@@@@@@@@@@@   ",
"   @@@@@@@@@@@@@@@@@@@        @@@@@@@@@@@@@@@@@@@   ",
"ooo    @@@@@@@@       oooooooo    @@@@@@@@@@@    ooo",
"ooo    @@@@@@@@       oooooooo    @@@@@@@@@@@    ooo",
"ooo    @@@@@@@@       oooooooo    @@@@@@@@@@@    ooo",
"ooo    @@@@@@@@       oooooooo    @@@@@@@@@@@    ooo",
"ooo            ooooooo........    @@@@@@@@@@@    ooo",
"ooo            ooooooo........    @@@@@@@@@@@    ooo",
"ooo            ooooooo........    @@@@@@@@@@@    ooo",
"ooo            ooooooo........    @@@@@@@@@@@    ooo",
"ooo            ooooooo........    @@@@@@@@@@@    ooo",
"ooo            ooooooo........    @@@@@@@@@@@    ooo",
"ooo    oooooooo...............    @@@@@@@@@@@    ooo",
"ooo    oooooooo...............    @@@@@@@@@@@    ooo",
"ooo    oooooooo...............    @@@@@@@@@@@    ooo",
"ooo    oooooooo...............    @@@@@@@@@@@    ooo",
"OOO    ...............XXXXXX..    @@@@@@@@@@@    OOO",
"OOO    ...............XXXXXX..    @@@@@@@@@@@    OOO",
"OOO    ...............XXXXXX..    @@@@@@@@@@@    OOO",
"OOO    ...............XXXXXX..    @@@@@@@@@@@    OOO",
"XXX    ...............XXXXXX..    @@@@@@@@@@@    XXX",
"XXX    ...............XXXXXX..    @@@@@@@@@@@    XXX",
"XXX    ...............XXXXXX..    @@@@@@@@@@@    XXX",
"XXX    ...............XXXXXX..    @@@@@@@@@@@    XXX",
"XXX    ...XXXXX.......XXXXXX..    @@@@@@@@@@@    XXX",
"XXX    ...XXXXX.......XXXXXX..    @@@@@@@@@@@    XXX",
"XXX    ...XXXXX.......XXXXXX..    @@@@@@@@@@@    XXX",
"XXX    ...XXXXX.......XXXXXX..    @@@@@@@@@@@    XXX",
"XXX    ...XXXXX.......XXXXXX..    @@@@@@@@@@@    XXX",
"...    ...XXXXX.......XXXXXX++    @@@@@@@@@@@    ...",
"...    ...XXXXX.......XXXXXX++    @@@@@@@@@@@    ...",
"...    ...XXXXX.......XXXXXX++    @@@@@@@@@@@    ...",
"...    ...XXXXX.......XXXXXX++    @@@@@@@@@@@    ...",
"XXX    ...XXXXX.......++++++..    @@@@@@@@@@@    XXX",
"XXX    ...XXXXX.......++++++..    @@@@@@@@@@@    XXX",
"XXX    ...XXXXX.......++++++..    @@@@@@@@@@@    XXX",
"XXX    ...XXXXX.......++++++..    @@@@@@@@@@@    XXX",
"XXX    ...XXXXX.......++++++..    @@@@@@@@@@@    XXX",
"XXX    ...XXXXX.......XXXXXX..    @@@@@@@@@@@    XXX",
"XXX    ...XXXXX.......XXXXXX..    @@@@@@@@@@@    XXX",
"XXX    ...XXXXX.......XXXXXX..    @@@@@@@@@@@    XXX",
"XXX    ...XXXXX.......XXXXXX..    @@@@@@@@@@@    XXX",
"XXX    ...XXXXX.......XXXXXX..    @@@@@@@@@@@    XXX",
"XXX    ...XXXXX.......XXXXXX..    @@@@@@@@@@@    XXX",
"XXX    ...XXXXX.......XXXXXX..    @@@@@@@@@@@    XXX",
"XXX    ...XXXXX.......XXXXXX..    @@@@@@@@@@@    XXX",
"XXX    ...XXXXX.......XXXXXX..    @@@@@@@@@@@    XXX",
"...    ...XXXXX...............    @@@@@@@@@@@    ...",
"...    ...XXXXX...............    @@@@@@@@@@@    ...",
"...    ...XXXXX...............    @@@@@@@@@@@    ...",
"...    ...XXXXX...............    @@@@@@@@@@@    ...",
"XXX    ...XXXXX...............    @@@@@@@@@@@    XXX",
"XXX    ...XXXXX...............    @@@@@@@@@@@    XXX",
"XXX    ...XXXXX...............    @@@@@@@@@@@    XXX",
"XXX    ...XXXXX...............    @@@@@@@@@@@    XXX",
"XXX    ...............        @@@@@@@@@@@@@@@    XXX",
"XXX    ...............        @@@@@@@@@@@@@@@    XXX",
"XXX    ...............        @@@@@@@@@@@@@@@    XXX",
"XXX    ...............        @@@@@@@@@@@@@@@    XXX",
"XXX    ........       @@@@@@@@@@@@@@@@@@@@@@@    XXX",
"XXX    ........       @@@@@@@@@@@@@@@@@@@@@@@    XXX",
"XXX    ........       @@@@@@@@@@@@@@@@@@@@@@@    XXX",
"XXX    ........       @@@@@@@@@@@@@@@@@@@@@@@    XXX",
"XXX    ........       @@@@@@@@@@@@@@@@@@@@@@@    XXX",
"XXX    ........       @@@@@@@@@@@@@@@@@@@@@@@    XXX",
"               @@@@@@@@@@@@@@@@@@@@@@@@@@@@@@       ",
"               @@@@@@@@@@@@@@@@@@@@@@@@@@@@@@       ",
"               @@@@@@@@@@@@@@@@@@@@@@@@@@@@@@       ",
"               @@@@@@@@@@@@@@@@@@@@@@@@@@@@@@       "
};
