/* XPM */
static char *result[] = {
/* columns rows colors chars-per-pixel */
"53 71 8 1 ",
"  c #754C60",
". c #90625D",
"X c #BE9F8A",
"o c #D99A9A",
"O c #DCB98A",
"+ c #E8B5AC",
"@ c #F3E5C2",
"# c None",
/* pixels */
"#####################################################",
"#####################################################",
"#####################################################",
"#####################################################",
"#####################################################",
"#####################################################",
"#####################################################",
"#####################################################",
"#####################################################",
"#####################################################",
"#####################################################",
"#####################################################",
"#####################################################",
"#####################################################",
"#####################################################",
"#####################################################",
"#####################################################",
"#####################################################",
"#####################################################",
"#####################################################",
"#####################################################",
"#####################################################",
"###########################...###..##################",
"##########################.@@.###.@..################",
"####################.....#.@@.....@..##....##########",
"####################.....#.@@.....@..##....##########",
"###################.@@@@@..OOOOOOO@@@..@@@@..########",
"###################.@@@@@..OOOOOOO@@@..@@@@..########",
"###################.@@@@@..OOOOOOO@@@..@@@@..########",
"#############.......@@@@@@@OOOOOOO@@@@.@@@@..########",
"###########..OOOO@@.+++++@OOO  OO@@  @.++++..########",
"#########..OOOOOO@@@......OOO  @@@@  @@....##########",
"#########..OOOOO@@@@@@@@@@@@@@@@@@@@@@@.#############",
"#######....OO@@@@@@@@@@@@@@@@@@++++++++.#############",
"######.OO..@@@@@@@@OO@@@@@.@@@+++o+++o+.#############",
"######.OO..@@@@@@@@OO@@@@@.@@@+++o+++o+.#############",
"######.OO..@@@@@@@@OO@@@@@.@@@+++o+++o+.#############",
"#####.O....@@@@@@OOOOOOOO@@..@+++++++++.#############",
"#####.O....@@@@@@OOOOOOOO@@..@+++++++++.#############",
"#####..##..@@@@@@@@OO@@@@@@@@..........##############",
"#########..OOOOO@@@@@@@@@@@OOOO..####################",
"#########..OOOOOOOOOOOOOOOOOOOO..####################",
"#########..OOOOOOOOOOOOOOOOOOOO..####################",
"#######..XX..OOOO....OOOOOO....XX.###################",
"#######..XX..OOOO....OOOOOO....XX.###################",
"#######..XXX...OO..#.OOOOO.##.XXX.###################",
"#########...###..####.....####...####################",
"#####################################################",
"#####################################################",
"#####################################################",
"#####################################################",
"#####################################################",
"#####################################################",
"#####################################################",
"#####################################################",
"#####################################################",
"#####################################################",
"#####################################################",
"#####################################################",
"#####################################################",
"#####################################################",
"#####################################################",
"#####################################################",
"#####################################################",
"#####################################################",
"#####################################################",
"#####################################################",
"#####################################################",
"#####################################################",
"#####################################################",
"#####################################################"
};
