/* XPM */
static char *result[] = {
/* columns rows colors chars-per-pixel */
"60 60 219 2 ",
"   c #FFAD5C",
".  c #FFA952",
"X  c #D49243",
"o  c #ED9942",
"O  c #B27B37",
"+  c #B37B37",
"@  c #D59343",
"#  c #D59243",
"$  c #FEAA52",
"%  c #E29948",
"&  c #F7A650",
"*  c #FFAA54",
"=  c #FFAC59",
"-  c #F9A650",
";  c #F1A34E",
":  c #DA9342",
">  c #DA9443",
",  c #F29D46",
"<  c #C8883E",
"1  c #C7873E",
"2  c #E09847",
"3  c #FEAA55",
"4  c #F9A44D",
"5  c #E69B48",
"6  c #DE9746",
"7  c #DF9847",
"8  c #FFAA55",
"9  c #FFAF63",
"0  c #FFAD5D",
"q  c #EDA14C",
"w  c #FEAA53",
"e  c #F39E47",
"r  c #FAA54E",
"t  c #FFB675",
"y  c #FFB26A",
"u  c #FEA952",
"i  c #EDA04C",
"p  c #B47B37",
"a  c #B47C37",
"s  c #FFAC5B",
"d  c #F1A24D",
"f  c #D39143",
"g  c #D39242",
"h  c #B27A37",
"j  c #FFAA52",
"k  c #FFA851",
"l  c #D39243",
"z  c #F6A24B",
"x  c #FFA953",
"c  c #FFAD5B",
"v  c #FFAB58",
"b  c #FFA951",
"n  c #F7A24B",
"m  c #FDA750",
"M  c #F6A14A",
"N  c #EC9D48",
"B  c #DB9645",
"V  c #E89C4A",
"C  c #C5873D",
"Z  c #C4873D",
"A  c #D69043",
"S  c #FFAF62",
"D  c #FFAA56",
"F  c #FFAB57",
"G  c #EA9E4B",
"H  c #F5A049",
"J  c #FBA54E",
"K  c #FBA64F",
"L  c #E59742",
"P  c #E39A48",
"I  c #B17A36",
"U  c #FFB676",
"Y  c #FFAC5A",
"T  c #FFA850",
"R  c #FEA851",
"E  c #E89742",
"W  c #D29142",
"Q  c #FBA650",
"!  c #DC9443",
"~  c #DE9542",
"^  c #E49642",
"/  c #EB9B47",
"(  c #BE833B",
")  c #C98A3F",
"_  c #C8893E",
"`  c #E19947",
"'  c #D39142",
"]  c #F8A34C",
"[  c #FFAB59",
"{  c #FEAA57",
"}  c #F4A04B",
"|  c #F5A14B",
" . c #D99343",
".. c #FEAB53",
"X. c #B27A36",
"o. c #D29042",
"O. c #FEAC5A",
"+. c #EF9B44",
"@. c #F19D46",
"#. c #ED9C46",
"$. c #DA9545",
"%. c #F9A54E",
"&. c #B07936",
"*. c #F2A34E",
"=. c #F2A34D",
"-. c #FFA954",
";. c #E79742",
":. c #E69742",
">. c #FFB065",
",. c #FFB36C",
"<. c #F29E48",
"1. c #EB9842",
"2. c #DC9645",
"3. c #EE9942",
"4. c #FFB36D",
"5. c #FFAB56",
"6. c #EE9A43",
"7. c #D69343",
"8. c #D79343",
"9. c #AE7835",
"0. c #ED9941",
"q. c #EC9841",
"w. c #FFB677",
"e. c #EF9A43",
"r. c #D89444",
"t. c #D79344",
"y. c #D69344",
"u. c #D89445",
"i. c #B07935",
"p. c #FAA751",
"a. c #FAA750",
"s. c #EF9B43",
"d. c #AF7835",
"f. c #FDA952",
"g. c #EB9841",
"h. c #FEA852",
"j. c #F8A650",
"k. c #FCA750",
"l. c #EE9B43",
"z. c #B17936",
"x. c #FFB574",
"c. c #FFAC58",
"v. c #FDAA52",
"b. c #D99444",
"n. c #E59C4A",
"m. c #CA8B3F",
"M. c #F4A44E",
"N. c #DE9543",
"B. c #DB9443",
"V. c #E99842",
"C. c #F8A44D",
"Z. c #F29E47",
"A. c #DA9343",
"S. c #F0A24D",
"D. c #EE9941",
"F. c #E69D4A",
"G. c #FFB472",
"H. c #FAA956",
"J. c #E59642",
"K. c #E69B49",
"L. c #B97F39",
"P. c #C6883E",
"I. c #FEAB57",
"U. c #E59B49",
"Y. c #F0A14D",
"T. c #E19745",
"R. c #F6A44E",
"E. c #FFB166",
"W. c #FFB064",
"Q. c #F6A652",
"!. c #DF9542",
"~. c #E29642",
"^. c #F6A54F",
"/. c #CB8C40",
"(. c #BF833B",
"). c #F3A34E",
"_. c #F5A54F",
"`. c #CB8B40",
"'. c #BD823A",
"]. c #D29143",
"[. c #F4A54F",
"{. c #F9A34C",
"}. c #C4853D",
"|. c #C5863D",
" X c #CC8C40",
".X c #D28F42",
"XX c #E99E4C",
"oX c #EFA454",
"OX c #FFB066",
"+X c #D99342",
"@X c #F19F48",
"#X c #E09745",
"$X c #EE9C47",
"%X c #B67D38",
"&X c #FFB26C",
"*X c #DA9544",
"=X c #D19042",
"-X c #FFB168",
";X c #FBA751",
":X c #DD9646",
">X c #FFB169",
",X c #EB9740",
"<X c #DC9646",
"1X c #FFB26B",
"2X c #F19C45",
"3X c #FFB674",
"4X c #FFB36E",
"5X c #FDA851",
"6X c #D69243",
"7X c #EC9942",
"8X c #FFB46E",
"9X c #F8A552",
"0X c #E39A49",
"qX c #F8A652",
"wX c #E49B49",
"eX c #F9A651",
"rX c #FFB470",
"tX c #E09848",
"yX c #CA8A3F",
/* pixels */
"    . . . . . . . . . X X o o . . . . . . . . . O + + + @ # $ . . . . . . . . % X X X & . . . . . . . . . . *   = . . . ",
"= = . . . . . . . - ; : > , , . . . . . . . . ; O + < 1 2 2 3 * . . 4 4 . . . 5 > 6 7 - . . . . . . . . . . 8 9 0 . . . ",
". . . . . . . . . q X o o . . . . . . . . . . X + + w . . .     . . o o . . . e o r . . . . . . . . . . . . = t y . . . ",
". . . . . . . . u i X o o . . . . . . . . u u X p a w . . .   s . . o o . . . e o r . . . . . . . . . . . . = t y . . . ",
". . . . . . . d f f X . . . . . . . . . $ f g h j j . .     k . . u l l o z . . . . . . . . . . . . . . x     c v . . . ",
". . . . . . . ; X X X . . . . . . . . . $ X # + . . . .     b . . u X X o n . . . . . . . . . . . . . . x       = . . . ",
". . . . . m M N X B V . . . . . . . . . $ C Z A . . S S D F b . G G V V H J . . . . . . . . . . . . . . x   s F 8 . . . ",
". . . . . K o L X P . . . . . . . . . . w + I . . . U t k . . u X # . . . . . . . . . . . . . . . . . . x   Y . . . . . ",
". . . . . K o L X P . . . . . . . . . . w + I . . . U t T . . R X X . . . . . . . . . . . . . . . . . . x   Y . . . . . ",
". . . m o E X 7 . . . . . . . . . . $ X @ + I . t t c   b u W X o o . . . . . . . . . . . . . . . . .   Y . . . . . . . ",
". . . m o E X 7 . . . . . . . . . . $ X @ + I . t t c   b u W X o o . . . . . . . . . . . . . . . . .   Y . . . . . . . ",
". . . Q ! ~ ^ / . . . . . . . . . . w ( ( ) _ . t t c   ` % ' X ] ] . . . . . . . . . . . . . . . [ { } | . . . . . . . ",
". . . - X  .o , . . . . . . . . . . ..+ X.X f . t t c   o.X X # . . . . . . . . . . . . . . . . .   O.o +.. . . . . . . ",
". . @.#.X $.%.K . . . . . . . . . 7 2 + &.*.=.. S S -.* W X ;.:.. . . . . . . . . >.,.D . . . . . <.<.%.r . . . . . . . ",
". . o 1.X 2.. . . . . . . . . . j # @ + &.. . .     . . W X 3.o . . . . . . . . . 4.t 5.. . . . . o 6.. . . . . . . . . ",
"b b 3.1.W $.. . . . . . . . . . . 7.8.I 9.. . b     . . W X 0.q.. . . . . . . . . 4.w.F . . . b b 3.e.. . . . . . . . . ",
"  s X r.. . . . . . . . . . . . ..a X.X W . .   . . . . W # $ . . . . . . . . . . . . . . . . s s X t.. . . . . . . . . ",
"    X r.. . . . . . . . . . . . ..a I X W . .   . . . . W # $ . . . . . . . . . . . . . . . .     X y.. . . . . . . . . ",
"u.u.X r.. . . . . . . . . . . . ..a i.p.- . . x . . . . - p.. . . . . . . . . . . . . . . . . x . p.a.. . . . . . . . . ",
"X X X r.. . . . . . . . . . . . ..a i.. . . . . . . . . . . . . . . . . . . . . . . . . . . . . . . . . . . . . . . . . ",
"X X l r.. . . . . . . . . . . . ..a i.. . . . . . . . . . . . . . . . . . . . . . . . . . . . . . . . . . . . . . . . . ",
"X X o 6.. . . . . . . . . . . . ..a i.. . . . . . . . . . . . . . . . . . . . . . . . . . . . o o . . . . . . . 8   . . ",
"X X o s.. . . . . . . . . . . . ..a i.. . . . . . . . . . . . . . . . . . . . . . . . . . . . o o . . . . . . . 8   . . ",
"X X . . . . . . . . . . . . . X # + i.. . . .   . . . . . . . . . . . . . . . . . . . . . . . X X . . . . . . . 8   . . ",
"X X . . . . . . . . . . . . . X @ + i.. . . .   . . . . . . . . . . . . . . . . . . . . . . . X X . . . . . . . 8   k . ",
"3.3.. . . . . . . . . . . . . + d.f.w . b       . . g.q.. . . . . . . . . . . . . . . . . ' ' 3.3.. . . . . *       o.' ",
"o o . . . . . . . . . . . . . a &.h.. . b       . . q.o . . . . . . . . . . . . . . . . . X X o o . . . . . *       f X ",
"s.s.. . . . . . . . . . . j.j.a &.h.. . b     Y k.k.l.s.. . . . . . D 8 . . . . . . . . . X X s.s.. . . . . *   c Y f X ",
". . . . . . . . . . . . . X X + &.h.. . b     . o o . . . . . . . . t t . . . . . . . . . X X . . . . . . . *   = . l X ",
". . . . . . . . . . . . . X X a z.h.. . b     . o o . . . . . . . . t x.. . . . . . . u u # # . . . . . . . *   c.. l X ",
". . . . . . . . . . . . . X X v.w . . . b     . o o . . . . . . . . T T . . . . . . . b.W $ $ . . . . . x   = b b . l X ",
". . . . . . . . . . . . . X X u . . . . b     . o o . . . . . . . . . . . . . . . . . $.X . . . . . . . x   Y . . . l X ",
". . . . . . . . . . . n.n.m.m.h.. . . * * = c.d L L . . . . . . . . . . . . . . . M.d N.B.. . . . . . . x   Y . m 4 l X ",
". . . . . . . . . . . O + + + h.. . b     . . X X X u . . . . . . . . . . . . . . 6 X V.o . . . . . . . x   Y . 4 o X X ",
". . . . . . . . . . u O + + + h.. . b     . . X # # u . . . . . . . . . . . . . . 6 X V.o . . . . . . . x   Y . C.o X X ",
". . . . . . . . . i f + + X X u . . b     . . X . . . . . . . . . . . . . . . Z.o A.X & . . . . . . . . x   Y . S.l D.o ",
". . . . . . . . . i X + + X X u . . b     . . X . . . . . . . . . . . . . . . e o > X & . . . . . . . . x   Y . S.X o o ",
". . . . . . . F.+ + + . . . . . .         . . o . . . . . . . . . . . . . . . e o r . . . . . . .   0 t G.  H.o J.X . . ",
". . . . . . . F.+ + + . . . . . .         . . o . . . . . . . . . . . . . . . e o r . . . . . . .   0 t G.  H.o J.X . . ",
". . . . . - K.t.+ L.P.. . . . F F     D I.K.U.n . . . . . . v F . . . . . Y.K.T.N.R.. . . . . . .     E.W.D Q.N.!.~.. . ",
". . . . . ^.X /.+ (.X . . . .         . $ X f . . . . . . .     . . . . . K.X X X ).. . . . . . .       Y . M.X ! o . . ",
". . . . j _.# `.&.'.' . . . .         . w X f . . . . . . .     . . . . . U.l ].' *.. . . . . . .       Y . M.X ! q.. . ",
". . . [.a a p 1 h.h.u s   . .     . . o 3.X f . . . . .   s b . . . . . # ~.o ] u . . . . . . . .   c . . . M.X ` . . . ",
". . . [.+ + + 1 . . .     . .     . . o 3.X f . . . . .     b . . . . . X ~.o {.. . . . . . . . .   c . . . M.X ` . . . ",
". . }.|. X.XXXoX4.OXY * * = Y     . $ > +X).*.. . . . .     b . . u 6 6 ;.@Xr m . . . . . . . Y Y * -.. - 6 #X;.$X. . . ",
". . + %XX 2.. s t &X  . .         . $ X W . . . . . . .     b . . u X X o n . . . . . . . . .     . . . & X  .o e . . . ",
"....i.+ W *Xb s t &X  . .         $ w l =X. . . . . . .     b . . u W W q.M . . . . . . . b b     . . $ & X  .q., . $ $ ",
"p p u u . x   S t -X. . .     . j # l o q.. . . . . . .     b . . . . . . . . . . . . . . s   . . . ;XX X X :X. . . l X ",
"&.&.. . . x c S U >X. . .     $ w # l q.,X. . . . . b b     b . . . . . . . . . . . . b b     . . . ;XX X l <X. . . X @ ",
". . . . . v t 1X. . . . . . . # X X W . . . . . . .         b . . . . . . . . . . . . Y       . . . ;XX 7.o 2X. . . X.+ ",
". . . . . v t 1X. . . . . . . # X X W . . . . . . .         b . . . . . . . . . . . . Y       . . . ;XX 7.o 2X. . . X.+ ",
". . . 8 3X4Xx . . 8   . . # # X W 5X5X. . . . . 3X3Xc   b . . . . . . . . . . . . . . . . . . . . # 6X7X6.R R . . . X.+ ",
". . . 8 t 8X. . . D   . . X X X W u . . . . . . t t c   b . . . . . . . . . . . . . . . . . . . . X # o +.. . . . . X.+ ",
". . . 8 3X4.. . . 8   h.h.X X X ' u . . . . . . 3X3Xc   b . . . . . . . . . . . . . . . . . . h.h.X # o +.. . . . h.X.+ ",
". . . . . . . *       X X o o . . . . . . . . .     U t s   b . . . . . . . . . . . . . . . . X X X y.. . . . . S.X O + ",
". . . . . . . *       X X o o . . . . . . . . .     t t s s b . . . . . . . . . . . . . . . . X X X y.. . . . . S.X O + ",
". . . . . . . *   9Xq.$ $ . . . . . . . . . . . U U Y c k . . . . . . . . . . . . . . . . . . 3.3.$ u . . . . . 0XI @ @ ",
". . . . . . . *   qXo . . . . . . . . . . . . . t t c   b . . . . . . . . . . . . . . . . . . o o . . . . . . . wX+ X X ",
". . . . x x x 8 Y eX+.. . . . . . . . x x . . . rXrXY Y b . . . . . . . . . . . . . . . . k.k.+.+.. . . . . 5X& tX+ $.$.",
". . . x       = . . . . . . . . . . b     . . . . . . . . . . . . . . . . . . . . . . . . o o . . . . . . . M.X yX+ . . "
};
