/* XPM */
static char *result[] = {
/* columns rows colors chars-per-pixel */
"60 60 4 1 ",
"  c #F8D6A3",
". c #F6C998",
"X c #FBE1AF",
"o c #D9AE80",
/* pixels */
"      .. X  ...... .  ..      .. X  ........  ..       .    ",
"        X  ...                  .   ...                 .X  ",
".......      XXXX   .  ........      XXXX   .  ........     ",
"..o.....      XX  ..  ....o.....       X   .  ....oo....    ",
"        ..... XX .   ..      .   ....  X ..   .      .   ...",
"    ...o.  .                ...oo  .                ...oo. .",
"   ...         ..          ...     X   ...          ...    X",
"        XXX  ...   .....        XXX  ...   ......       XXX ",
".   X  XXX     ..... ....   X  XXX     .. .. ....   X  XXX  ",
".    XX          ........    XX          ........    XX     ",
"XX      .....  .......  XX       ....  .......   X       ...",
"   ......  X    XXX XX     ......       XXX XX      ......  ",
"....o.o. XX   .  XXXX   ....o.o..XXX  .   XXXX  ....o.... XX",
"X....   X  ....... X    X....       .......X    X....    X  ",
"X  XX... X...  .......  X  XXX...X...  .......      XX... ..",
"..   XX X.       .     X...   X  .        .    XX..   X  X  ",
".....XXX    XX        .......XXXX  XXX        .......XXXX  X",
"..    XXX          ...oo..    XXX          ...ooo.     XXX  ",
"  .. XXX   ....     ....   .  XX   ....     ....   .  XX   .",
"... XX  .........   ....... XX   ........   ........XXX  ...",
"   XX  ..........     ..   XX  ...........    ..    X  .....",
"X    .o.o.o.. XX      XXX    .o.o.o.. XX      XXX    ...ooo.",
"X    ..... XXX   ...  XXX    .....  XX   ...  XXX    .....  ",
"  .  ...  XX   ......         ... XX   .......  X  .  ... XX",
"      .. X  ...... .  ..      .. X  ........  ..       .    ",
"        X  ...                  .   ...                 .X  ",
" ....   X  .     X       .....     .     XX      .....   X .",
"..o.....      XX  ..  ....o.....       X   .  ....oo....    ",
"        ..... XX .   ..      .   ....  X ..   .      .   ...",
"     .........  X             ......... X             ......",
"   ...         ..          ...     X   ...          ...    X",
"        XXX  ...   .....        XXX  ...   ......       XXX ",
"o.   XXX   ....   .....oo..   XXX   ...    ....oo..   XXX   ",
".    XX          ........    XX          ........    XX     ",
"XX      .....  .......  XX       ....  .......   X       ...",
"X    .......  XX       XX     ......  XX       XX     ......",
"....o.o. XX   .  XXXX   ....o.o..XXX  .   XXXX  ....o.... XX",
"X....   X  ....... X    X....       .......X    X....    X  ",
"XX   .     ..oo....   ..XX   .     ..oo....   .. X   ..    .",
"..   XX X.       .     X...   X  .        .    XX..   X  X  ",
".....XXX    XX        .......XXXX  XXX        .......XXXX  X",
"......XXXXXX       . .........XXXXXX       . ..........XXXXX",
"..    XXX          ...oo..    XXX          ...ooo.     XXX  ",
"... XX  .........   ....... XX   ........   ........XXX  ...",
"   XX  ..........     ..   XX  ...........    ..    X  .....",
"XX   ..o.    .       XXXXX    .oo    ..      XXXXX    .oo.  ",
"X    ..... XXX   ...  XXX    .....  XX   ...  XXX    .....  ",
"  .  ...  XX   ......         ... XX   .......  X  .  ... XX",
"  .. XXXXXX   ...oo....    .  XXXXXX  ...oo....    .  XXXXXX",
"        X  ...                  .   ...                 .X  ",
" ....   X  .     X       .....     .     XX      .....   X .",
".......      XXXX   .  ........      XXXX   .  ........     ",
"        ..... XX .   ..      .   ....  X ..   .      .   ...",
"     .........  X             ......... X             ......",
"    ...o.  .                ...oo  .                ...oo. .",
"        XXX  ...   .....        XXX  ...   ......       XXX ",
"o.   XXX   ....   .....oo..   XXX   ...    ....oo..   XXX   ",
".   X  XXX     ..... ....   X  XXX     .. .. ....   X  XXX  ",
"XX      .....  .......  XX       ....  .......   X       ...",
"X    .......  XX       XX     ......  XX       XX     ......"
};
