/* XPM */
static char *_3d14b6d79a2480dbff727b4713f1da8rTTX5nrKqtG3Lq76[] = {
/* columns rows colors chars-per-pixel */
"53 71 2 1 ",
"  c #9BD4C3",
". c #B1E0BE",
/* pixels */
"             ....             ...             ..     ",
"                                                     ",
"       ...             ...              ...          ",
"       ...             ...              ...          ",
"       ...             ...              ...          ",
"       ...             ...              ...          ",
"       ...             ...              ...          ",
"                                                     ",
"                                                     ",
"                                                     ",
"                                                     ",
"                                                     ",
"                                                     ",
"                                                     ",
"                                                     ",
"                                                     ",
"                                                     ",
"...            .....            ....            ...  ",
"...            .....            ....            ...  ",
"...            .....            ....            ...  ",
"...            .....            ....            ...  ",
"                                                     ",
"                                                     ",
"                                                     ",
"                                                     ",
"                                                     ",
"                                                     ",
"                                                     ",
"                                                     ",
"                                                     ",
"                                                     ",
"         ....             ....            ....       ",
"         ....             ....            ....       ",
"         ....             ....            ....       ",
"         ....             ....            ....       ",
"         ....             ....            ....       ",
"                                                     ",
"                                                     ",
"                                                     ",
"                                                     ",
"                                                     ",
"    ..              ..               ..              ",
"    ..              ..               ..              ",
"    ..              ..               ..              ",
"    ..              ..               ..              ",
"    ..              ..               ..              ",
"                                                     ",
"                                                     ",
"                                                     ",
"                                                     ",
"                                                     ",
"             ...             ....             ...    ",
"             ...             ....             ...    ",
"             ...             ....             ...    ",
"             ...             ....             ...    ",
"       ...              ...             ...          ",
"       ...              ...             ...          ",
"       ...              ...             ...          ",
"       ...              ...             ...          ",
"       ...              ...             ...          ",
"                                                     ",
"                                                     ",
"                                                     ",
"                                                     ",
"                                                     ",
"                                                     ",
"                                                     ",
"                                                     ",
"                                                     ",
"                                                     ",
"                                                     "
};
